<?xml version="1.0" encoding="utf-8"?>
<!-- Generator: Adobe Illustrator 26.4.1, SVG Export Plug-In . SVG Version: 6.00 Build 0)  -->
<svg version="1.1" id="Capa_1" xmlns="http://www.w3.org/2000/svg" xmlns:xlink="http://www.w3.org/1999/xlink" x="0px" y="0px"
	 viewBox="0 0 3503 2519" style="enable-background:new 0 0 3503 2519;" xml:space="preserve">
<style type="text/css">
	.st0{opacity:0.963;fill-rule:evenodd;clip-rule:evenodd;fill:#42C0F0;enable-background:new    ;}
	.st1{opacity:0.951;fill-rule:evenodd;clip-rule:evenodd;fill:#42C0F0;enable-background:new    ;}
	.st2{opacity:0.961;fill-rule:evenodd;clip-rule:evenodd;fill:#42C0F0;enable-background:new    ;}
	.st3{opacity:0.959;fill-rule:evenodd;clip-rule:evenodd;fill:#42C0F0;enable-background:new    ;}
	.st4{opacity:0.952;fill-rule:evenodd;clip-rule:evenodd;fill:#42C0F0;enable-background:new    ;}
	.st5{opacity:0.957;fill-rule:evenodd;clip-rule:evenodd;fill:#42C0F0;enable-background:new    ;}
	.st6{opacity:0.964;fill-rule:evenodd;clip-rule:evenodd;fill:#42C0F0;enable-background:new    ;}
	.st7{opacity:0.933;fill-rule:evenodd;clip-rule:evenodd;fill:#42C0F0;enable-background:new    ;}
	.st8{opacity:0.966;fill-rule:evenodd;clip-rule:evenodd;fill:#42C0F0;enable-background:new    ;}
	.st9{opacity:0.962;fill-rule:evenodd;clip-rule:evenodd;fill:#42C0F0;enable-background:new    ;}
	.st10{opacity:0.373;fill-rule:evenodd;clip-rule:evenodd;fill:#42C0F0;enable-background:new    ;}
	.st11{opacity:0.985;fill-rule:evenodd;clip-rule:evenodd;fill:#42C0F0;enable-background:new    ;}
	.st12{opacity:0.92;fill-rule:evenodd;clip-rule:evenodd;fill:#42C0F0;enable-background:new    ;}
	.st13{opacity:0.956;fill-rule:evenodd;clip-rule:evenodd;fill:#42C0F0;enable-background:new    ;}
	.st14{opacity:0.955;fill-rule:evenodd;clip-rule:evenodd;fill:#42C0F0;enable-background:new    ;}
	.st15{opacity:0.96;fill-rule:evenodd;clip-rule:evenodd;fill:#42C0F0;enable-background:new    ;}
	.st16{opacity:0.958;fill-rule:evenodd;clip-rule:evenodd;fill:#42C0F0;enable-background:new    ;}
</style>
<g>
	<path class="st0" d="M1812.5-0.5c3.7,0,7.3,0,11,0c3.7,1.5,6.2,4.1,7.5,8c1.2,8.9,3.2,17.5,6,26c3.6,35.1,6.9,70.5,10,106
		c1.5,6.8,2.7,13.6,3.5,20.5c-0.7,3.7-1,7.2-1,10.5c3.8,12.3,4.8,24.7,3,37c0.8,9.4,2,18.7,3.5,28c0.6,8.4,0.4,16.6-0.5,24.5
		c1.8,22.1,3.3,44.3,4.5,66.5c1.3-2.1,2.8-4.1,4.5-6c-0.7-0.3-1.3-0.7-2-1c7.7-32.3,15.2-64.6,22.5-97c0.3-4.7,0.7-9.3,1-14
		c6.8-26.7,13.8-53.4,21-80c3-7.3,6-14.7,9-22c2.2-5.2,5-10.1,8.5-14.5c7.2-3.3,12.3-1.5,15.5,5.5c0.4,4.8,1.4,9.5,3,14
		c0.4,15.8,0.9,31.7,1.5,47.5c-0.5,79.2-2,158.4-4.5,237.5c-0.4,4.4-1.2,8.8-2.5,13c-0.1,4,1.1,4.7,3.5,2c0.3-2.7,0.7-5.3,1-8
		c6.3-10.6,10.3-21.9,12-34c8.8-25,16.8-50.4,24-76c13.7-35.3,27.3-70.7,41-106c8.9-21.3,21.4-40.1,37.5-56.5
		c4.6-0.7,7.9,1.2,10,5.5c-0.3,0.7-0.7,1.3-1,2c0.7,2.9,1.2,5.9,1.5,9c0.7,13.3,0.7,26.7,0,40c-4.8,43.8-9.1,87.8-13,132
		c-2.4,23.6-5.2,47.1-8.5,70.5c0.8,2.1,1.3,4.2,1.5,6.5c5.6-18.3,12.9-36,22-53c8.6-14,16.6-28.3,24-43c8.6-13.9,17.9-27.2,28-40
		c6.8-8.3,15.3-14,25.5-17c4.9,1.5,7.8,4.8,8.5,10c1.4,5.3,1.7,10.6,1,16c-4.1,22.9-7.8,45.5-11,68c-3.6,24.5-7.9,48.8-13,73
		c-7.3,34-14.7,68-22,102c-2.1,3.1-3.8,6.4-5,10c-4.3,21.9-8,43.9-11,66c-13.5,59.7-27.2,119.3-41,179c-3.5,18.3-6.8,36.6-10,55
		c-3.6,1.8-5.6,4.8-6,9c-1.4,4-1.6,8-0.5,12c-1.2,2.4-2.2,4.9-3,7.5c0.8,5.4,2.9,5.9,6.5,1.5c2.7-9.3,5.3-18.7,8-28
		c21.8-51.8,46.4-102.2,74-151c10.7-16.7,21.3-33.3,32-50c5.5-5,12-7.2,19.5-6.5c4.9,5,5.9,11,3,18c0.1,1.1,0.4,2.1,1,3
		c-1.6,11.1-3.4,22.3-5.5,33.5c-5.1,19.1-10.5,38.1-16,57c-1.1,2.5-2.4,4.8-4,7c-12.2,59.3-28.1,117.7-47.5,175c0.3,0.3,0.7,0.7,1,1
		c3-2.5,5.8-5.2,8.5-8c15.2-27.4,30.2-55.1,45-83c30.4-51.9,64.1-101.6,101-149c6.4-8.6,14.9-12.5,25.5-11.5c3.6,2.1,5.6,5.2,6,9.5
		c-15.4,54.3-34.2,107.3-56.5,159c-13.7,40-29,79.3-46,118c-0.8,1.1-0.6,2.1,0.5,3c2.6-2.1,5.1-4.5,7.5-7c20.8-28.8,40.8-58.1,60-88
		c31.6-42.6,65.1-83.8,100.5-123.5c7.5-6.2,15.1-12.2,23-18c12.2-4.8,18.1-0.6,17.5,12.5c-12.4,37.5-29.1,72.8-50,106
		c-2.4,7.1-5.1,14.1-8,21c-10.4,20.5-21.1,40.8-32,61c-4.3,10.8-8.9,21.5-14,32c-9.9,13.9-17.4,28.1-22.5,42.5c0.3,0.5,0.7,1,1,1.5
		c14.1-13.9,26.9-28.9,38.5-45c23.4-25.7,46.4-51.7,69-78c20.9-20.9,41.7-41.7,62.5-62.5c13.6-10.5,27.6-20.5,42-30
		c4.1-1.7,8.1-1.3,12,1c1.7,3,3.3,6,5,9c-2.5,8.1-5.6,15.9-9.5,23.5c-12.1,19.2-23.4,38.8-34,59c-13.2,17.8-24.9,36.5-35,56
		c-2.9,5.3-6.9,9.6-12,13c-0.9,3.1-1.9,6.1-3,9c-3,1.7-5.3,4-7,7c-1.4,5.7-4,10.7-8,15c-20.7,33.6-41.5,67.1-62.5,100.5
		c1.8,0.5,3.5,0.2,5-1c2.6-4.1,5.6-8,9-11.5c27.1-25.5,54.4-52.4,82-80.5c18.7-16.1,35.7-31.8,51-47c7.6-6.5,15.6-12.5,24-18
		c26.9-27.3,57.3-50,91-68c6.3-1.4,10.5,1.1,12.5,7.5c1.1,2.9,1.5,5.9,1,9c-4.6,10.6-10.3,20.6-17,30c-39.7,52-79.1,104.4-118,157
		c-10.1,11.8-20.6,23.3-31.5,34.5c4.7,0.1,9-1.2,13-4c38.1-32.2,77.1-63.2,117-93c24.2-15.3,47.9-31.3,71-48c6.1-2.8,12.1-5.8,18-9
		c8.8-3.5,17.8-5.5,27-6c5.2,4.2,6.7,9.3,4.5,15.5c-3.5,6.3-7.5,12.3-12,18c-16.7,19.3-33.3,38.7-50,58
		c-42.1,44.1-83.5,88.8-124,134c-3.3,2.8-7,5.2-11,7c-0.9,2-2.3,3.6-4,5c-0.3,2.4-1,4.8-2,7c-8.4,8.8-16.9,17.6-25.5,26.5
		c-9.9,8.6-19.3,17.9-28,28c6.4-1.5,12.4-4.2,18-8c10.2-7.2,20.5-14.2,31-21c5.7-5.8,12.3-10.2,20-13c65.9-45.1,134.3-86.5,205-124
		c23.1-12.1,47.1-21.9,72-29.5c8.7,1.8,12.2,7.1,10.5,16c-0.6,2.2-1.6,4.2-3,6c-7.2,6.9-14,14-20.5,21.5c-16.9,13.2-32.9,27.6-48,43
		c-2.8,2.2-5.8,4.2-9,6c-14.8,13.9-29.8,27.6-45,41c-56.1,48.8-112.8,96.8-170,144c5.6-0.1,10.9-1.4,16-4c18-12,36.7-23,56-33
		c86.3-45.3,175.3-84.3,267-117c9.4-2.4,18.9-4.3,28.5-5.5c8.4,0.3,13.6,4.4,15.5,12.5c-1.4,4.5-4.1,8.1-8,11
		c-49.7,38.3-101,74.3-154,108c-5.3,4.3-10.7,8.7-16,13c-41.7,27-83.3,54-125,81c-6.3,4.6-12.3,9.6-18,15c6.7-1.6,13.4-3.6,20-6
		c16-6.7,32-13.3,48-20c28.7-9,57-19,85-30c48.5-15.6,97.1-30.6,146-45c23.7-6.3,47.7-10.8,72-13.5c10.7-1.2,17.4,3.3,20,13.5
		c-0.4,3.4-2.1,6.1-5,8c-5.4,5.4-11.4,10.1-18,14c-94,50.3-188.7,99.7-284,148c-13.2,7.4-26.2,15.1-39,23c0.6,0.8,1.1,1.6,1.5,2.5
		c37.7-12.8,75.8-23.9,114.5-33.5c63.8-13.2,127.8-25.6,192-37c25.9-4.6,51.9-6.3,78-5c13.5,0.1,18.6,6.6,15.5,19.5
		c-1.2,1.2-2.3,2.3-3.5,3.5c-65.1,28.1-130.8,54.7-197,80c-56.2,21.3-112.6,42-169,62c0.6,1.3,1.6,2.1,3,2.5
		c7.6-1.7,15.3-3.2,23-4.5c38-4.4,75.9-8.9,113.5-13.5c0.9,0.2,1.7,0.6,2.5,1c6.6-1.6,13.2-2.7,20-3.5c7.2-0.2,14.4-0.7,21.5-1.5
		c0.7,0.6,1.6,0.9,2.5,1c3-0.9,6-1.8,9-2.5c18.7-1,37.4-2.3,56-4c3.3-0.7,6.7-1.3,10-2c27.7-0.9,55.3-2.4,83-4.5
		c17.5,0.6,34.8,2.4,52,5.5c12.8,3,16.9,10.5,12.5,22.5c-38.5,13.2-77.3,25.3-116.5,36.5c-46.4,10.9-92.8,22.2-139,34
		c-0.8,0.9-1.8,1.6-3,2c-43.4,9.8-86.7,19.8-130,30c-1.2,0.4-2.2,1.1-3,2c3.3,1.1,6.8,1.6,10.5,1.5c18.5-1.2,37-2.7,55.5-4.5
		c94.5-2.7,188.8,0,283,8c19.9,1.3,39.9,5,60,11c2.8,1.5,5,3.7,6.5,6.5c0.7,4.3,0.7,8.7,0,13c-1.2,2.5-3,4.3-5.5,5.5
		c-22.1,4.5-44.4,9.2-67,14c-57.5,9.1-115.2,16.7-173,23c-12.7,2.2-25.3,4.4-38,6.5c-1.5-0.2-3-0.5-4.5-1c-7.4,2-14.9,3.5-22.5,4.5
		c-28.6,3.7-57.3,6.7-86,9c-0.5,0.4-0.8,0.9-1,1.5c13.9,2.1,27.9,4,42,5.5c63.3,2.2,126.3,8.6,189,19c45.8,8,91.5,16.7,137,26
		c10.4,2.9,20.4,6.9,30,12c9.4,5.7,11.9,13.5,7.5,23.5c-3.6,2.7-7.6,3.4-12,2c-16.2,3.3-32.3,4.6-48.5,4c-7.6,1.4-15.3,2.2-23,2.5
		c-29.4,0.4-58.8,1.4-88,3c-17.2,0.7-34.3,0.5-51.5-0.5c-25.8,1.9-51.7,2.2-77.5,1c-20.6,2.3-41.3,2.7-62,1c-12.1,0-24.1,0.8-36,2.5
		c12.1,2.9,24.5,5.2,37,7c11.9,2.7,23.5,6.1,35,10c9.3,1.7,18.6,2.7,28,3c2.9,1.3,5.6,2.9,8,5c15.1-0.4,29.8,2,44,7
		c9.4,1.3,18.7,2.9,28,5c44.9,13.4,89.9,26.4,135,39c14.9,5.9,29.9,11.6,45,17c12.6,5.1,23.1,12.9,31.5,23.5
		c1.6,5.4,0.1,9.6-4.5,12.5c-77.9-0.7-155.6-5.4-233-14c-9.3-0.3-18.7-0.7-28-1c-88.4-9.6-176.8-19.9-265-31
		c-45.3-4.6-90.6-8.6-136-12c-13.3-1-26.6-1.7-40-2c-4.8-11.2-6.1-22.7-4-34.5c-4.5-34.9-8.9-69.6-13-104
		c-9-40.6-19.7-80.1-32-118.5c-9-21.4-17.8-42.9-26.5-64.5c-26.6-57.3-61.8-107.8-105.5-151.5c-18-15.3-36-30.7-54-46
		c-35.2-23.6-72.6-43.6-112-60c-113.4-40-229.1-48-347-24c-39.9,9.1-78.9,21.1-117,36c-10,5-20,10-30,15c-20.8,14.2-41.8,28.2-63,42
		c-34.6,29.9-66.4,62.4-95.5,97.5c-14.6,22.9-29.6,45.6-45,68c-7.5,14.7-14.2,29.7-20,45c-3.4,6.5-7.1,12.8-11,19
		c-4.3,14.9-9.9,29.2-17,43c-0.2,4.8-1.2,9.5-3,14c-2.4,2.6-4.1,5.6-5,9c-1.3,6.7-2.7,13.3-4,20c-2.8,5-4.8,10.4-6,16
		c-15.6,56.2-25.1,113.4-28.5,171.5c0.5,5.1,1.2,10.5,2,16c9.9,0.4,19.8,0.5,29.5,0.5c3.6-0.6,6.6-2.3,9-5c1.3-11.6,1.9-23.3,2-35
		c2.3-18.4,5-36.7,8-55c3.6-14.5,6.6-29.2,9-44c7.1-22.8,13.4-45.8,19-69c21.3-67.9,53-130.2,95-187c33.3-43,72.1-80.1,116.5-111.5
		c26.2-16.1,53.5-30.1,82-42c60.7-21.7,123.2-34.2,187.5-37.5c27.2,0.4,54.4,1.6,81.5,3.5c27.1,4.5,54.1,9.5,81,15
		c31.6,5.8,60.2,16.9,86,33.5c4.3,0.7,8.7,1.5,13,2.5c5.2,3.8,10.9,6.8,17,9c7.6,5.9,15.9,10.6,25,14c8.8,8.6,18.4,15.9,29,22
		c39.5,32.9,73.4,70.7,101.5,113.5c11.2,18.3,21.8,37,32,56c30.4,66.3,50.4,135.3,60,207c2.6,15.9,4,31.9,4,48
		c2.8,9.9,3.8,19.9,3,30c0.9,4.2,1.8,8.3,2.5,12.5c-0.1,4.8-2.4,6.4-7,5c-5.6-3.2-11.6-5.2-18-6c-30.2-3.1-60.2-7.1-90-12
		c-9.2,0.2-18.2-1-27-3.5c-4.4,1.9-8.8,4.1-13,6.5c-3.7,1.3-6.2,0.1-7.5-3.5c-1.3-10.7-2.6-21.3-4-32c-5.9-27-11.9-54-18-81
		c-7.1-20.4-14.5-40.7-22-61c-8.6-14.8-16.3-30.2-23-46c-12.1-21.4-25.8-41.8-41-61c-21.4-23.7-44.9-44.9-70.5-63.5
		c-28.5-15.8-58.2-29.2-89-40c-52.2-11.2-104.5-12.2-157-3c-10.2,2.5-20.6,4.5-31,6c-32.7,12-63.3,27.7-92,47
		c-16.1,13.8-32,28-47.5,42.5c-11,14-22.3,27.6-34,41c-3.4,8.4-8.1,16.1-14,23c-6.7,12.1-13.4,24.1-20,36
		c-10.9,21.1-19.6,43.1-26,66c-2.9,6.2-5.5,12.6-8,19c-5.5,23-11.2,46-17,69c-0.4,10.9-2.2,21.6-5.5,32c0.2,0.6,0.5,1.1,1,1.5
		c-4.4,5.3-9.9,6.8-16.5,4.5c-7.6,1.2-15.1,2.8-22.5,5c-2.7-1.6-5.7-2.2-9-2c-13.6,0.3-26.6,3.1-39,8.5c-17.3,0.9-34.7,1.9-52,3
		c-6.1,0.8-12.1,2.2-18,4c-1.3,0.7-1.3,1.3,0,2c-0.9,0.5-1.9,0.7-3,0.5c0.5,6.5-0.3,12.9-2.5,19c-3.1,2.3-6.6,3.4-10.5,3.5
		c-16,0.7-32,0.7-48,0c-1.5-0.8-2.7-2-3.5-3.5c-1-5.1-1.1-10.1-0.5-15c-130.3,13.2-260.6,27.4-391,42.5c-9.9,0.8-19.7,1.6-29.5,2.5
		c-0.6-0.5-1.2-0.9-2-1c-3.4,1.1-6.9,1.9-10.5,2.5c-59.8,4.5-119.8,8.5-180,12c-16.3,0.7-32.7,0.7-49,0c-3.3-1.8-4.7-4.6-4-8.5
		c-0.4-3.9,0.9-7.1,4-9.5c10.5-7.1,21.5-13.4,33-19c12.2-4.1,24.2-8.8,36-14c86.9-27.2,174.9-49.9,264-68
		c14.2-3.2,28.4-5.4,42.5-6.5c3.5-2.2,7.3-3.3,11.5-3.5c0.8-1,1.2-2.2,1-3.5c-4.8-0.6-9.3,0.1-13.5,2c-0.7-0.7-1.3-1.3-2-2
		c-14.4,1.3-28.9,2-43.5,2c-106.9-1.1-213.6-4.2-320-9.5c-8-0.9-15.1-3.7-21.5-8.5c-1.9-5.4-1.4-10.2,1.5-14.5c4.3-1.5,8.3-3.5,12-6
		c9.8-3.4,19.4-7.1,29-11c70.5-16.1,141.5-28.3,213-36.5c0.6,0.2,1.1,0.5,1.5,1c9.3-2.5,18.8-4.3,28.5-5.5c37.1-2.6,74.1-5.2,111-8
		c-1.1-1.4-2.4-2.4-4-3c-66.1-10.6-132.1-19.2-198-26c-10.2-1.5-20.4-3.4-30.5-5.5c-1.2,0.1-2.4,0.5-3.5,1
		c-24.5-4.1-49.2-7.6-74-10.5c-24.7-3.6-49.1-8.9-73-16c-5.2-4.6-6.3-10.1-3.5-16.5c6.8-5.7,14.6-8.9,23.5-9.5c0.7-0.7,1.3-1.3,2-2
		c5.5-0.1,10.9-1.1,16-3c6-0.3,12-0.7,18-1c8.2-2.7,16.5-3.6,25-2.5c14.6-3.2,29.6-4.8,45-4.5c0.9-0.4,1.8-0.9,2.5-1.5
		c2.1,0.7,4.3,1.4,6.5,2c6.2-1.4,12.6-2.3,19-2.5c64.6-3.3,129.3-4.3,194-3c4.1,0.3,8.1,1,12,2c12.7,0.2,25.4,0.7,38,1.5
		c2.4-0.3,4.7-0.8,7-1.5c-2.6-3-6-4.7-10-5c-33.4-8.3-67.1-15.3-101-21c-60.2-16.1-120.5-31.8-181-47c-31.3-8.2-62-18.2-92-30
		c-5.2-5.3-5.2-10.6,0-16c15.8-6,32.1-9.3,49-10c21-0.6,42-0.3,63,1c88.2,6.6,176.2,15.2,264,26c4,0.7,7.8,1.9,11.5,3.5
		c4.3-0.3,8.7-0.7,13-1c9.9,4.4,10.8,3.3,2.5-3.5c-4.1-0.3-8.1-1-12-2c-103.8-37.1-206.8-76.1-309-117c-13.4-5.5-26.4-11.9-39-19
		c-6.7-6.7-6.7-13.3,0-20c1.6-0.9,3.3-1.5,5-2c24.4-1.3,48.8-0.3,73,3c48.6,7.3,96.9,15.9,145,26c27.2,6.6,54.5,12.6,82,18
		c31.1,9.7,62.3,18.9,93.5,27.5c1.1-0.1,1.9-0.6,2.5-1.5c-10-6-20-12-30-18c-25.8-13.1-51.8-25.7-78-38c-57.3-30-114.7-60-172-90
		c-13.6-9.3-27.9-17.3-43-24c-8.1-5.8-16-11.9-23.5-18.5c-2.8-4.5-3.1-9.2-1-14c0.8-0.6,1.6-1.1,2.5-1.5c20.9-2.2,41.6-0.9,62,4
		c71.9,17.5,142.2,39.9,211,67c14.7,3.7,29,8.3,43,14c20,8.3,40,16.7,60,25c4.2,1.8,8.6,2.8,13,3c-9.3-7-18.7-14-28-21
		c-53.2-33.9-105.9-68.6-158-104c-20.8-16.2-42.5-31.2-65-45c-15-11-30-22-45-33c-9.1-7.1-17.6-14.9-25.5-23.5
		c-1.9-6.4,0.3-11.2,6.5-14.5c11.5-0.5,22.9,0.8,34,4c74.5,26.2,147.2,56.9,218,92c40.2,20.3,79.9,41.3,119,63c1.9,1,3.9,1.3,6,1
		c-4.3-5.3-9-10.3-14-15c-79.1-62.7-156.1-128-231-196c-19.4-14.8-36.9-31.6-52.5-50.5c-3.7-13.3,1.1-18.5,14.5-15.5
		c14.2,4.4,28.2,9.4,42,15c24.2,11.5,48.2,23.5,72,36c76.9,45.6,151.9,93.9,225,145c1.5,1,3.2,1.5,5,1.5c0.2-1.1,0-2.1-0.5-3
		c-69.3-73.3-138.3-147-207-221c-9.5-13.5-20.5-25.9-33-37c-6.8-9-13.2-18.3-19-28c-1.1-11.3,4.1-16.1,15.5-14.5
		c21.5,7.1,40.8,17.7,58,32c18.7,10.7,36.7,22.3,54,35c41.2,31.8,82.2,63.8,123,96c1.1,0.8,2.1,0.6,3-0.5
		c-9.1-9.8-17.9-19.8-26.5-30c-44.3-58.3-88.7-116.7-133-175c-6-9.2-9-19.2-9-30c1.5-3.4,4.2-4.8,8-4c11,2.1,21.2,6.2,30.5,12.5
		c72,54.3,139.5,114.1,202.5,179.5c7.4,7.7,14.4,15.7,21,24c5.2,2.2,9.5,5.5,13,10c0.7-0.7,0.7-1.3,0-2c-22.7-36.4-45.1-73.1-67-110
		c-16-20.3-30-42-42-65c-24.7-33.5-45.4-69.5-62-108c0.3-9.6,5.2-13.1,14.5-10.5c20.1,12.8,39.1,27.1,57,43
		c27.2,27.5,54,55.4,80.5,83.5c23.6,28.1,47.8,55.8,72.5,83c0.6-0.2,1.1-0.5,1.5-1c0.1,2.9,1.6,4.3,4.5,4c0.3-2-0.4-3.5-2-4.5
		c0.3-0.3,0.7-0.7,1-1c-6.4-7.9-11.9-16.4-16.5-25.5c-30.6-61.3-61.3-122.6-92-184c-7.6-15.3-13.1-31.3-16.5-48
		c0.8-9.3,5.8-13.1,15-11.5c2.9,0.8,5.6,2.1,8,4c23.8,25,46.9,50.5,69.5,76.5c24.6,33.6,49.6,67,75,100c2.2,3.5,4.2,7.2,6,11
		c8.7,10.1,16.7,20.7,24,32c3.7,4,7.7,7.7,12,11c-18-38.6-33.7-78.3-47-119c-14.1-30.6-26.4-62-37-94c-6-18-12-36-18-54
		c-1-5.3-1.3-10.6-1-16c5-4.7,10.5-5.2,16.5-1.5c24.2,21.5,44.7,46,61.5,73.5c7.2,11.5,14.2,23.2,21,35c2.3,1.3,4.3,3,6,5
		c3.5,9.6,8.5,18.3,15,26c4.1,10.3,9.8,19.7,17,28c4.9,9.5,9.6,19.2,14,29c3.9,4.8,7.6,9.8,11,15c6.8,13,14.2,25.7,22,38
		c1,0.8,2.2,1.2,3.5,1c-6.1-17.5-11.9-35.2-17.5-53c-8.4-32.8-17.4-65.5-27-98c-5-25.1-11.7-49.7-20-74c-6.3-21.3-9.9-42.9-11-65
		c6.3-5.2,12.8-5.3,19.5-0.5c11.7,12.4,21.9,25.9,30.5,40.5c18.7,32.7,36.3,66,53,100c19.7,42,39.3,84,59,126
		c-10.1-60.7-21.1-121.4-33-182c-4.1-30.6-8.6-61.1-13.5-91.5c0.2-1.7,0.5-3.4,1-5c-2.6-10.8-4.8-21.6-6.5-32.5
		c-1.3-10.7-2.7-21.3-4-32c-11.8-52.6-21.2-105.6-28-159c-8.9-46.3-14.8-92.9-17.5-140c-1.3-13.5,4.7-19.3,18-17.5
		c3.5,2.5,6.6,5.3,9.5,8.5c6.3,9.3,12.9,18.3,20,27c3.6,7.1,6.6,14.4,9,22c5.8,9,11.2,18.3,16,28c2.5,5.1,4.4,10.4,5.5,16
		c1.1-0.1,2.1,0,3,0.5c-1,1-1.2,2.2-0.5,3.5c10.1,18.6,18.4,37.9,25,58c0.7,1.3,1.3,2.7,2,4c1.5-4.6,1.8-9.2,1-14
		c-3.4-23.1-5.7-46.1-7-69c-0.8-3-1.5-6-2-9c-2.1-21.1-3.4-42.4-4-64c-1.9-8.7-3.1-17.6-3.5-26.5c0.1-0.8,0.5-1.4,1-2
		c-1.3-5-2.2-10.2-2.5-15.5c-0.7-20.7-0.7-41.3,0-62c2.3-7.7,7.1-9.9,14.5-6.5c10.8,11.8,19.6,25,26.5,39.5c12,32.7,24,65.3,36,98
		c7.9,22.5,14.9,45.1,21,68c1.2-12.3,0.4-24.5-2.5-36.5c0.5-3,1.5-5.8,3-8.5c-0.8-4.6-1.3-9.3-1.5-14c-0.7-41-0.7-82,0-123
		c1.4-3.9,1.6-7.9,0.5-12c0.1-16.2,1.9-32.2,5.5-48c7.8-7.3,14.5-6.3,20,3c4,6.2,7,12.9,9,20c20.9,80.7,36.4,163.4,46.5,248
		c-2.3,5.6-1.2,7,3.5,4c1-10.2,1.3-20.6,1-31c1.4-4.9,2.4-9.9,3-15c1.5-35.2,4.7-70.2,9.5-105c-0.5-0.9-0.8-1.9-1-3
		c0.8-7.3,1.3-14.6,1.5-22c7-44.5,12.9-89.5,17.5-135c-1.2-2.9-0.8-5.4,1-7.5c-1.6-5-1.1-9.9,1.5-14.5c0.4-9.2,2.1-18.2,5-27
		C1807.5,2.7,1809.7,0.7,1812.5-0.5z M1815.5,59.5c1,0,1.7,0.5,2,1.5c2.5,7.9,3.6,16.1,3.5,24.5c0.3,2.5,1,4.8,2,7
		c3.7,39,7.3,78,11,117c3.5,55.2,7.1,110.2,11,165c10.6,215.3,15.6,430.9,15,647c-0.3,7.3-0.7,14.7-1,22c-1.2,5-4.3,7.8-9.5,8.5
		c-6.6,1.1-12.9,0.4-19-2c-1.8-1.8-3-4-3.5-6.5c-1-216-2.3-432-4-648c-0.3-8.7-0.7-17.3-1-26c-0.9-3.5-3-5.7-6.5-6.5
		c-4.1-1-7.9-0.5-11.5,1.5c-0.3,1-0.7,2-1,3c-0.9,40-1.6,80-2,120c-0.6,185-1.3,370-2,555c-0.4,4-2.2,7.2-5.5,9.5
		c-7.4,1.2-14.9,2-22.5,2.5c-3.2-0.1-4.9-1.7-5-5c-0.9-26.2-1.7-52.3-2.5-78.5c1.3-68.7,2.2-137.6,2.5-206.5c2-45,3.3-90,4-135
		c6.4-100.7,13.4-201.4,21-302c5.7-49.5,10-99.2,13-149C1808.8,138.9,1812.6,99.2,1815.5,59.5z M1701.5,135.5c1.3,0.6,2.1,1.6,2.5,3
		c2.3,7.9,4.3,15.9,6,24c15.6,87.5,31.6,174.8,48,262c1.2,13.6,2.1,27.3,2.5,41c-1,27.6-2,55.1-3,82.5c-0.6,17.7-1.7,35.5-3.5,53.5
		c-1,0.8-2.2,1.2-3.5,1c-4.2-27.8-10.3-55.1-18.5-82c-9.7-42.6-19-85.3-28-128c-0.1-35.7-0.9-71.4-2.5-107c-0.2-24.7,0.4-49.3,2-74
		c0-12.7-0.6-25.4-2-38c1.5-11,1.1-22.2-1-33.5C1700.6,138.4,1700.9,136.9,1701.5,135.5z M1924.5,146.5c0.8,1.8,1.3,3.8,1.5,6
		c0.7,24,0.7,48,0,72c-1.9,82.3-4.3,164.7-7,247c-1.4,19.2-4.1,38.2-8,57c-1.3,2-2.7,4-4,6c-1.7,5.9-3.8,11.5-6.5,17
		c-0.8,0.9-1.8,1.2-3,1c3.9-36.9,6.4-73.9,7.5-111c-3.3-6.7-8.5-8.6-15.5-5.5c-1.2,0.9-2,2.1-2.5,3.5c-0.9,5.3-1.6,10.6-2,16
		c-2.1,37.1-5.3,74.1-9.5,111c1.8,4.9,1,9.2-2.5,13c-0.8-1.2-1.3-2.6-1.5-4c0.6-4,0.9-8,1-12c-3.7-50.9-4.8-101.9-3.5-153
		c0.7-13.4,2-26.7,4-40c11.8-56.2,22.8-112.9,33-170c2.3-5,4.7-10,7-15C1916.1,172.2,1919.9,159.2,1924.5,146.5z M1599.5,167.5
		c1.9-0.2,3.4,0.5,4.5,2c7.1,14,13.4,28.3,19,43c15,44.7,30,89.3,45,134c16.2,62.4,32.5,124.7,49,187c8.8,47,19.1,93.7,31,140
		c1.1,9.1,1.6,18.3,1.5,27.5c-0.6,49.7-2.2,99.4-5,149c0.7,14.5,0.9,29,0.5,43.5c-3.8-4-5.2-8.7-4-14c-5.4-20-9.4-40.4-12-61
		c-1.5-8.4-3.5-16.8-6-25c-9.2-72.8-19.5-145.5-31-218c-4.2-44.6-8.8-88.9-14-133c-1.2-0.9-2.5-1.6-4-2c-4.9,1-9.7,2.2-14.5,3.5
		c-1.6,1.8-2.2,4-2,6.5c2,15.9,3.8,31.5,5.5,47c2.4,5.2,2.9,10.5,1.5,16c2.8,17.7,5.3,35.7,7.5,54c2.5,4.5,3,9.2,1.5,14
		c0.6,4.3,1.2,8.7,2,13c-0.2,2.1-0.7,4.1-1.5,6c-0.7,1.3-1.3,1.3-2,0c-3.2-11.8-7.5-23.1-13-34c-1.9-7.3-3.6-14.6-5-22
		c-6.7-16.6-12.1-33.6-16-51c-15.1-100.3-26.4-200.6-34-301c-1.5-1-2.3-2.3-2.5-4c0.7-2.4,1.7-4.8,3-7
		C1602.8,176.8,1601.2,172.1,1599.5,167.5z M2048.5,168.5c0.6,0.1,1.1,0.4,1.5,1c0,4.6,0.2,9.1,0.5,13.5c-1.2,0.5-2,1.3-2.5,2.5
		c-2.4,27.7-5.4,55.4-9,83c-7.3,51.2-14,102.6-20,154c-2.4,16-5.1,32-8,48c-10.6,32.9-22.6,65.2-36,97c-0.7-6-0.7-12,0-18
		c2.2-8.8,3-17.7,2.5-26.5c3.7-19.9,6.7-39.9,9-60c1.1-5.5-0.9-9.1-6-11c-7.1-2-11.6,0.5-13.5,7.5c-2.4,10.6-3.6,21.1-3.5,31.5
		c-3.5,20.4-6.5,40.7-9,61c-1.2,1.6-2.1,3.5-2.5,5.5c-7.3,46.7-14.7,93.3-22,140c-2.9,16.5-6.6,32.8-11,49
		c-17.7,51.4-28.9,104.3-33.5,158.5c0.8,4,0.6,7.8-0.5,11.5c-1-0.8-2.2-1.2-3.5-1c0.1-61.3,0-122.6-0.5-184c12-60.3,26.3-120,43-179
		c10.4-46.2,22.1-92.2,35-138c2.6-4.7,4.6-9.7,6-15c11.3-39.4,23.6-78.4,37-117c3.3-6.2,6.3-12.5,9-19c6.1-18.1,12.5-36.1,19-54
		C2036.5,195.9,2042.6,182.3,2048.5,168.5z M1515.5,261.5c3.3,4.2,6.5,8.5,9.5,13c5.7,10.7,11.3,21.3,17,32
		c15.4,33,30.1,66.3,44,100c13.7,39,27.3,78,41,117c12,38.6,23.6,77.2,35,116c16,57.9,31.6,115.9,47,174
		c13.8,80.4,26,161.1,36.5,242c-11,2.3-21.9,5.3-32.5,9c-2.8-2.1-4.8-4.8-6-8c-35.8-175.4-71.5-350.7-107-526
		c-3.7-3.8-8.2-4.9-13.5-3.5c-1.8,0.5-3,1.7-3.5,3.5c5.7,54.4,14.1,108.4,25,162c23.7,124,47.6,248,71.5,372c0.6,4.4-1.1,7.6-5,9.5
		c-3.9,1.5-7.9,2.6-12,3.5c-1.9-0.1-3.1-1.1-3.5-3c-12.4-64-24.6-127-36.5-189c-8.8-46.7-18-93.4-27.5-140c-0.3-7.4-1-14.7-2-22
		c-3.3-21-7.5-42.2-12.5-63.5c-7.5-34-14-68.5-19.5-103.5c-1-3.5-2.2-7-3.5-10.5c0.3-1,0.7-2,1-3c-6.3-52.4-16-104.1-29-155
		c-4.2-33.5-8-67-11.5-100.5c-1.8-5.9-3.3-11.9-4.5-18C1514,266.8,1514.6,264.1,1515.5,261.5z M2134.5,274.5c0.7,0.4,1.2,1.1,1.5,2
		c0.7,4.7,0.7,9.3,0,14c-19,85.1-36.7,170.1-53,255c-16.3,68.7-31.3,137.7-45,207c-1.8,4.1-3,8.5-3.5,13c-3,2.7-3.6,5.8-2,9.5
		c-5.7,21.3-10.5,42.8-14.5,64.5c-9.2,46-19.8,91.3-32,136c0.2,6.6-0.8,12.9-3,19c0.1,7.6-1.9,14.6-6,21c-2.2,20.8-7.2,40.8-15,60
		c-0.9-0.6-1.8-1.2-2.5-2c1.7-3.2,2.8-6.5,3.5-10c2.5-18.6,6.2-36.9,11-55c8.7-46.2,18-92.6,28-139c13.2-73.5,27.2-146.8,42-220
		c7.2-41.6,13.9-83.2,20-125c3.3-12.7-1.2-17.2-13.5-13.5c-2.3,1.6-3.8,3.8-4.5,6.5c-37.2,177.8-75.2,355.5-114,533
		c-2,7-6.7,10.7-14,11c-10-1.1-19.8-3-29.5-5.5c-5-2.2-7.3-6-7-11.5c5.6-37.6,10.7-75.3,15.5-113c4.7-30.2,10-60.2,16-90
		c21.3-79.6,44.7-158.6,70-237c24.2-68,49.5-135.3,76-202c1-2.3,2.7-4,5-5c5.5-14.4,12.2-28.4,20-42c0.3,0.3,0.7,0.7,1,1
		c2.3-5.6,5-10.9,8-16c11.6-20.6,24-41.2,37-62C2131.7,277.3,2133.2,275.9,2134.5,274.5z M2147.5,663.5c1.2,0.1,2.1,0.7,2.5,2
		c0.7,2.7,0.7,5.3,0,8c-6.5,20-11.5,40.3-15,61c-18,57.1-34,114.8-48,173c-10.4,29.5-19.4,59.5-27,90c-4.4,8.5-6.7,17.5-7,27
		c-15.4,49.6-30.4,99.2-45,149c-5.7,24.2-13,47.8-22,71c-7.1,25.5-14.7,50.8-23,76c-1.2,5.2-4.4,7.1-9.5,5.5c-1.3-0.8-2-2-2-3.5
		c24.2-85.2,49.1-170.6,74.5-256c19.5-69.6,38.9-139.3,58-209c0.7-4,0.7-8,0-12c-2.4-5.6-6.6-7.4-12.5-5.5c-2.6,1.9-4.4,4.4-5.5,7.5
		c-40.2,136.5-79.9,272.8-119,409c-1.4,2.7-3.2,5.1-5.5,7c-0.3-0.8-0.7-1.7-1-2.5c0.6-3.2,1.1-6.3,1.5-9.5c3-11.1,6.3-22.1,10-33
		c0.3-4.7,0.7-9.3,1-14c2.2-4.9,4.2-9.9,6-15c9.1-47.3,19.1-94.3,30-141c1.5-8.4,3.1-17.1,5-26c7.6-23.7,14.3-47.7,20-72
		c7.2-17.7,14.5-35.7,22-54c1.7-2.3,3.3-4.7,5-7c1.6-6.1,3.6-12.1,6-18c8.5-18.4,17.1-36.8,26-55c3.5-11.8,8.5-22.8,15-33
		c12.9-29.2,26.9-57.9,42-86c2.5-6.2,4.6-12.6,6.5-19C2140.9,674.1,2144.6,669.1,2147.5,663.5z M1460.5,664.5c1.9,0.4,3.4,1.4,4.5,3
		c30.4,54.4,58.4,110.1,84,167c0.8,2.2,0.5,4.2-1,6c-3.2-2.3-6.5-4.3-10-6c-3.4,0.2-5.7,1.9-7,5c-0.7,3.3-0.7,6.7,0,10
		c12.8,45.4,24.4,91,35,137c17.9,58.3,34.6,117,50,176c9,29.7,18,59.3,27,89c1,7.1,2.3,14.1,4,21c5.9,14.7,10.7,29.7,14.5,45
		c-2.2,6.4-5.7,7.4-10.5,3c-2.8-3.9-4.8-8.3-6-13c-8.5-33.9-18.8-67.2-31-100c-2.4-12.1-5.1-24.1-8-36c-2.1-6.9-4.8-13.6-8-20
		c-5.2-29.1-13-57.4-23.5-85c-2.3-2.7-4.2-5.7-5.5-9c-0.7-5.7-1.4-11.3-2-17c-1.2-3.2-3.2-5.9-6-8c-6.9-41.4-17.9-81.8-33-121
		c-9.5-32.4-18.2-65.1-26-98c-4.9-13.6-9.5-27.3-14-41C1479.7,736.2,1470.6,700.2,1460.5,664.5z M2258.5,706.5c0.2,6-1,12-3.5,18
		c-31.4,77.8-61.4,156.1-90,235c-18.3,38.3-34.3,77.7-48,118c-26,64-52,128-78,192c-10.6,24.5-21.6,48.8-33,73
		c-3.8,1.8-5.9,0.7-6.5-3.5c15.6-43.4,32.8-86.3,51.5-128.5c0.9-4.3,1.6-8.6,2-13c4.5-7,8.5-14.3,12-22c6.9-18.7,14.6-37.1,23-55
		c1.1-4.8,2.4-9.5,4-14c20.1-45.3,38.4-91.3,55-138c14.5-28.1,25.8-57.5,34-88c1.3-9-2.5-13.2-11.5-12.5
		c-15.4,23-26.9,47.8-34.5,74.5c-39,94.3-78,188.7-117,283c-6.8,17.1-12.8,34.4-18,52c-1.6,2.8-2.8,2.6-3.5-0.5
		c3.1-7.3,5.9-14.8,8.5-22.5c0.3-3.3,0.7-6.7,1-10c7.1-21.3,13.1-43,18-65c9.3-25.7,17.7-51.7,25-78c0.3-4.7,0.7-9.3,1-14
		c6.1-7.5,9.4-16.2,10-26c1.7-3.2,3.1-6.5,4-10c0.8-5.5,1.5-10.8,2-16c1.1-1.2,2.5-2.2,4-3c14.4-35.9,31.8-70.2,52-103
		c6.3-12.9,12.3-25.9,18-39c7.1-7.4,12.1-16.1,15-26c22.5-34.5,44.1-69.5,65-105C2231.9,741.1,2244.7,723.4,2258.5,706.5z
		 M1353.5,708.5c5.6,3.8,10.5,8.5,14.5,14c17.7,27,35.3,54,53,81c14.1,27.4,29.7,53.7,47,79c14.4,31.5,30.4,62.2,48,92
		c16.7,29.8,29.7,61.2,39,94c1,8.1,2.7,16.1,5,24c9.5,28.4,18.8,56.7,28,85c4.7,5.4,6.2,11.6,4.5,18.5c2.8,3.3,3.8,7,3,11
		c0.6,2.7,1.8,5.2,3.5,7.5c0.3,3,0.7,6,1,9c2.8,7,5.7,14,8.5,21c-0.6,1.8-1.4,3.5-2.5,5c-4.4-6.3-7.1-13.3-8-21
		c-13.7-34.7-28.3-69-44-103c-10.8-28-22.5-55.7-35-83c-20.8-54.3-42.1-108.9-64-164c-6.3-7.2-13.3-7.9-21-2c-1.5,3.2-1.8,6.5-1,10
		c31,75.3,61,150.9,90,227c32.3,72.6,62.3,145.9,90,220c-4,4.2-7.7,3.8-11-1c-49.7-119.5-98.4-239.5-146-360c-2.1-4.5-4.4-8.8-7-13
		c-15-43.2-31.3-85.9-49-128c-2.3-5.8-5.5-10.9-9.5-15.5c-0.2-8.1-2.4-15.6-6.5-22.5C1374.4,764.9,1364.2,736.6,1353.5,708.5z
		 M1249.5,754.5c20.7,23.7,41.2,47.7,61.5,72c19.5,28.1,39.3,55.9,59.5,83.5c-0.7,1-1.3,2-2,3c-3.5,1.7-7.1,2.7-11,3
		c-4.9,2.6-6.1,6.5-3.5,11.5c30,61.3,60,122.6,90,184c24.2,45.7,48.2,91,72,136c15.9,30.8,31.6,61.8,47,93c6.6,5.8,5.6,9.8-3,12
		c-1.2-0.4-2.4-0.9-3.5-1.5c-2-3.2-4.2-6.4-6.5-9.5c-2.4-7.6-5.4-14.9-9-22c-6.6-10.2-12.9-20.5-19-31c-31.1-59.2-62.4-118.2-94-177
		c-16.8-31.9-32.8-64.3-48-97c-2.8-5-6.2-9.7-10-14c-31-63.9-63-127.3-96-190c-6.5-14.4-13.1-28.8-20-43
		C1250,764.1,1248.5,759.8,1249.5,754.5z M2359.5,754.5c1.8-0.3,3.4,0,5,1c-14.7,35.4-31.6,69.8-50.5,103c-38.8,80-79.5,159-122,237
		c-4.4,10.9-9.4,21.6-15,32c-40.5,76.3-81.5,152.3-123,228c-4.8,5.8-7.1,5.2-7-2c5.7-12.5,11.7-24.8,18-37
		c20.9-39.2,42.2-78.2,64-117c19-39.7,39.4-78.7,61-117c17.8-35.7,36.2-71,55-106c9.6-19.1,18.6-38.4,27-58
		c0.8-10.9-4.1-14.4-14.5-10.5c-5.8,9.2-11.7,18.3-17.5,27.5c-30.8,58.3-62.2,116.3-94,174c-29.5,59-60,117.4-91.5,175
		c-0.4-4,0.1-8,1.5-12c2.5-3,4.5-6.3,6-10c27-69.7,55.4-138.7,85-207c11.4-18.4,22.4-37.1,33-56
		C2236.5,915.2,2296.3,833.5,2359.5,754.5z M2462.5,813.5c1.1,0.1,1.8,0.8,2,2c-0.9,3.9-2.4,7.6-4.5,11c-14.6,18.2-26.9,37.8-37,59
		c-27.4,41.1-54.1,82.8-80,125c-32.1,47.9-63.4,96.2-94,145c-11.8,15.8-24.3,31-37.5,45.5c-0.9,0.5-1.9,0.7-3,0.5
		c-0.2-1.4,0-2.7,0.5-4c47.1-72.4,94.4-144.8,142-217c4.5-9.6,1.5-15.6-9-18c-5.1,1-9.1,3.7-12,8c-49.3,74.7-98.7,149.3-148,224
		c-20.7,29.7-41.1,59.7-61,90c-3.6,5.6-8,10.6-13,15c-0.3-2.5,0.4-4.8,2-7c32.7-56.8,63.4-114.8,92-174c3-5,6-10,9-15
		c20.1-27.8,40.4-55.5,61-83c5.7-5.7,11.3-11.3,17-17c14.3-18.9,29.3-37.2,45-55c34.6-38.3,69.6-76.3,105-114
		C2446.1,826.5,2454,819.5,2462.5,813.5z M1147.5,818.5c0.8-1.1,1.8-1.2,3-0.5c4.6,2.3,8.9,4.9,13,8c13.8,14.2,28,28,42.5,41.5
		c45.1,49.7,89.4,100.1,133,151c20.4,26.7,40.4,53.7,60,81c17.3,29.5,33.3,59.9,48,91c21.9,36.4,42.2,73.7,61,112
		c1.2,0.6,2.4,1.2,3.5,2c0.9,3,2.4,5.7,4.5,8c1.3,3.2,2.2,6.6,2.5,10c-1.3,0.2-2.5-0.2-3.5-1c-1.5-3.6-2.9-7.3-4-11
		c-1.3,0.7-2.7,0.4-4-1c-2.8-9.2-7.8-16.9-15-23c-24.4-40.7-50.7-80-79-118c-24.3-37-48.7-74-73-111c-3.3-4-6.7-8-10-12
		c-15.8-28.5-33.8-55.5-54-81c-6.5-6.9-12.5-6.6-18,1c-0.7,2.7-0.7,5.3,0,8c44.8,69,89.2,138.3,133,208c0.7,0.7,0.7,1.3,0,2
		c-9-6.3-16.7-14-23-23c-13.1-20.1-25.7-40.4-38-61c-31.5-45.7-61.5-92.3-90-140c-11.1-15.1-21.4-30.8-31-47c-3.9-5.6-8.3-11-13-16
		c-8.7-16-17.3-32-26-48C1163.4,837.8,1155.9,827.8,1147.5,818.5z M1549.5,843.5c2,2.1,3.8,4.5,5.5,7c9.5,20.8,19.2,41.5,29,62
		c10.6,27.4,20.6,55.1,30,83c11.6,42.7,20.6,85.7,27,129c2.2,8.6,3.8,17.2,5,26c0.6,3.7,1.8,7.2,3.5,10.5c-0.5,3.9,0.3,7.7,2.5,11.5
		c0.8,3.7,0.6,7.4-0.5,11c3,5.7,5.1,11.7,6.5,18c0.7,2.8,0.6,5.4-0.5,8c-3-3.6-5.5-7.6-7.5-12c-1.2-5.2-2.8-10.2-5-15
		c-0.3-5-0.7-10-1-15c-28.8-97.8-56.8-195.1-84-292C1557.2,864.6,1553.7,853.9,1549.5,843.5z M2562.5,882.5c3.2,0.4,3.7,1.7,1.5,4
		c-67,90.3-135.6,179.3-206,267c-7.7,8.3-15.6,16.4-23.5,24.5c-6.9,3.9-12.9,8.9-18,15c-2.7,2.2-5.7,3.5-9,4
		c19.5-23.5,39-47,58.5-70.5c12.1-15.4,23.4-31.4,34-48c13.5-14.1,25.9-29.1,37-45c3.8-6.6,3.2-12.8-1.5-18.5c-4.2-2.2-8.2-1.9-12,1
		c-98.4,121.5-197.2,244-296.5,367.5c-4.5,5.8-10.3,9.5-17.5,11c-4.1-1-6.8-3.5-8-7.5c0.8-3.5,2.3-6.7,4.5-9.5
		c40.1-55.1,79.7-110.4,119-166c12.5-10.9,23.2-23.2,32-37c9.1-7.1,16.8-15.4,23-25c16.4-14.1,31.1-29.8,44-47c5.7-5,11.3-10,17-15
		c4.7-5,9.1-10.4,13-16c20.4-20.1,41.3-39.9,62.5-59.5c16.4-16.5,32.7-32.9,49-49c13.5-9.5,25.9-20.5,37-33c3.3-2,6.7-4,10-6
		C2528.7,909.4,2545.4,895.6,2562.5,882.5z M1048.5,883.5c7.6,3.5,14.3,8.3,20,14.5c8.9,5.3,17.2,11.3,25,18
		c64.1,57.8,126.6,117.3,187.5,178.5c35.4,38.4,70.4,77,105,116c31.3,38,60.3,77.7,87,119c10.6,14.9,21.6,29.6,33,44
		c0.9,3.3,0.1,6.2-2.5,8.5c-4.6,3.1-9.6,4.8-15,5c-18.2-22.2-36-44.7-53.5-67.5c-20.2-22.8-39.2-46.4-57-71c-21-23.9-41-48.6-60-74
		c-10-11.3-20-22.7-30-34c-1.8-3.8-3.8-7.5-6-11c-11.2-11.2-20.9-23.5-29-37c-4.3-5.3-9-10.3-14-15c-13.4-20.5-28.5-39.7-45.5-57.5
		c-2.7-2-5.3-4-8-6c-9.3,0.3-13.1,5.1-11.5,14.5c3.4,5.8,7.1,11.5,11,17c14.6,16.6,28.3,33.9,41,52c23.3,28.9,46.3,58.9,69,90
		c4.8,3.9,8.6,8.6,11.5,14c-0.5,1-1.2,1.2-2,0.5c-4.4-4-8.4-8.4-12-13c-13.7-10.7-26.6-22.6-38.5-35.5c-4.2-8.3-10-15.3-17.5-21
		c-16.7-25-35.5-48.3-56.5-70c-5.8-10.3-12.2-20.3-19-30c-36.8-45.1-72.5-91.1-107-138C1051.4,891.1,1049.6,887.5,1048.5,883.5z
		 M1373.5,917.5c1.3-0.2,2.5,0.2,3.5,1c20.9,30.2,41.6,60.5,62,91c18,29.1,33.7,59.4,47,91c18.9,48.9,39.3,97.2,61,145
		c1.8,2.5,3.7,5,5.5,7.5c-2.4,3.5-4.6,3.3-6.5-0.5c-2.8-3.5-4.4-7.5-5-12c-4.8-3.9-7.8-8.9-9-15c-5.9-8.3-10.6-17.3-14-27
		c-2-2-4-4-6-6c-1.2-9-4.5-17-10-24c-1.5-4.1-3.1-8.1-5-12c-4.1-3.3-7.6-7.2-10.5-11.5c0.5-0.4,0.8-0.9,1-1.5
		c-1.3-3.3-2.4-6.6-3.5-10c-30.5-59-60.5-118.4-90-178c-5.8-11-12.2-21.7-19-32C1373.9,921.7,1373.4,919.7,1373.5,917.5z
		 M2274.5,1343.5c32.1-33.7,64.6-66.7,97.5-99c5.3-6.6,11.3-12.6,18-18c8-9.3,16-18.7,24-28c13.3-12.3,26.3-25,39-38
		c18.9-20.8,37.6-41.8,56-63c4-5.5,2.9-9.7-3.5-12.5c-3.2-1.5-6.5-1.8-10-1c-15.8,12.1-30,26-42.5,41.5c-15,15.4-30.4,30.4-46,45
		c-8,8.4-15.7,17-23,26c-74.6,74.6-148.4,149.7-221.5,225.5c-3.1,3-6.8,4-11,3c-3.1-2.1-6-4.6-8.5-7.5c1.6-5.8,4.2-11.1,8-16
		c40.6-47.6,81.6-95,123-142c101.6-98.3,209.1-189.2,322.5-272.5c10.1-7.5,20.8-14.1,32-20c5.5-4.8,11.5-8.8,18-12c1-0.7,2-0.7,3,0
		c-10.4,14.4-22.2,27.5-35.5,39.5c-8.8,11.5-18.4,22.2-29,32c-2.6,4.3-5.6,8.3-9,12c-27.6,26.2-52.9,54.2-76,84
		c-11.7,9.1-22.1,19.4-31,31c-39.4,38.8-77.4,78.8-114,120c-23.6,22.9-47.7,45.1-72.5,66.5
		C2279.9,1341.5,2277.2,1342.7,2274.5,1343.5z M1357.5,1364.5c-3.4-1.2-6.4-3-9-5.5c-28.8-27.3-57.5-54.8-86-82.5
		c-18.2-19-36.2-38.2-54-57.5c-6.2-2.5-11.3-6.3-15.5-11.5c-11.9-15.3-24.6-29.9-38-44c-30.5-30.5-59.5-62.1-87-95
		c-7.7-8-15.7-15.7-24-23c-13.7-15.7-28-30.7-43-45c-1.8-4.3-4.1-8.3-7-12c-10.2-10.5-20-21.4-29.5-32.5c3.9,0.4,7.5,1.8,11,4
		c6.7,5.4,14,9.7,22,13c57.2,42.1,113.6,85.5,169,130c13.4,14.1,28.1,26.8,44,38c9.4,9.4,19.4,18.1,30,26c20.5,21.1,42.1,40.8,65,59
		c28.5,29.5,56.7,59.3,84.5,89.5c23.5,28.4,47.5,56.4,72,84c1.3,1.9,1.6,3.9,1,6c-3.4,5.5-8.3,9.1-14.5,11c-2.1-0.6-4.1-1.4-6-2.5
		c-20.1-23.8-41.9-45.9-65.5-66.5c-14-15.6-28.3-31-43-46c-70.3-70.9-139.8-142.4-208.5-214.5c-5.4-4.6-11.8-6.8-19-6.5
		c-4,2.5-6.6,6-8,10.5c0.7,1.9,1.5,3.7,2.5,5.5c5.1,3.5,9.9,7.3,14.5,11.5c27.8,30.8,56.6,60.6,86.5,89.5c50.3,54,101,107.6,152,161
		C1355.4,1360.4,1356.6,1362.4,1357.5,1364.5z M2294.5,1426.5c4.8-6.6,10.5-12.5,17-17.5c21.9-17.1,43.5-34.4,65-52
		c15-13.3,29.6-27,44-41c48.3-35.7,94.3-74.3,138-116c10.4-9.4,21-18.4,32-27c7-6.6,6.7-12.6-1-18c-6.2-1.2-11.6,0.4-16,5
		c-52.8,41.5-104.5,84.5-155,129c-70.6,58.3-141,117-211,176c-7.6,2.8-13.6,0.8-18-6c1.9-2.5,3-5.4,3.5-8.5
		c33.8-31.5,67.3-63.3,100.5-95.5c33.6-28.2,67.6-55.8,102-83c33-22.3,66-44.7,99-67c7-5.7,14-11.3,21-17c8.3-3.5,16.3-7.5,24-12
		c35-23.5,70.3-46.5,106-69c16.9-7.1,32.9-15.8,48-26c18.2-9.6,36.2-19.4,54-29.5c0.3,0.3,0.7,0.7,1,1c-9.7,10.2-19.7,20.4-30,30.5
		c-35,30-69.6,60.3-104,91c-19.7,15.7-39.3,31.3-59,47c-30.4,28.3-62,55-95,80c-34.7,31.5-71,60.8-109,88
		C2332.9,1402.1,2313.9,1414.6,2294.5,1426.5z M1312.5,1424.5c-7.3-3.4-13.7-8.2-19-14.5c-22.8-13.8-44.8-28.8-66-45
		c-29-24.1-58.4-47.7-88-71c-11.7-11.4-23.7-22.4-36-33c-46.7-39.7-93.7-79-141-118c-12.1-11.4-24.7-22.1-38-32
		c-9.1-9.7-18.7-18.7-29-27c-3-1.5-6-3-9-4.5c-0.8-2-1.7-4-2.5-6c-5.9-4.2-10.7-9.4-14.5-15.5c6.2-1.8,11.5-0.1,16,5
		c9.8,4.5,19.1,9.8,28,16c17.2,8.8,34.2,17.8,51,27c104.1,61.8,204.1,129.5,300,203c36.3,32.7,73,65,110,97
		c10.9,11.2,22,22,33.5,32.5c5.9,8.8,4.1,15.6-5.5,20.5c-2.5,0.7-4.8,0.4-7-1c-67.3-54.3-134.3-108.9-201-164
		c-34-26.7-68-53.3-102-80c-19.6-19.6-40.9-36.9-64-52c-12.2-7.8-18-4.7-17.5,9.5c1.8,2.8,4,5.3,6.5,7.5
		c92.1,74.7,183.4,150.4,274,227C1300.2,1410.2,1307.2,1416.4,1312.5,1424.5z M1801.5,1064.5c52.3-1.8,103.3,5.3,153,21.5
		c0.8,0.8,1.7,1.7,2.5,2.5c1.3,5.8,0.3,11.2-3,16c-1.8,6.4-3.8,12.7-6,19c-1,2.3-2.7,4-5,5c-7.1-2.7-14.3-5.2-21.5-7.5
		c-13.4-1.5-26.4-4.5-39-9c-33.9-3.8-67.9-4.8-102-3c-10.1,0.8-20.1,2.2-30,4c-24.2,6.7-48.6,13.1-73,19c-9.5,3.3-16.5,0.4-21-8.5
		c0.8-2.3,1.5-4.6,2-7c-0.2-2.2-1.2-3.8-3-5c-1.3-5.3-1.3-10.7,0-16c31.1-9.1,62.5-17.6,94-25.5
		C1766.9,1067.5,1784.2,1065.7,1801.5,1064.5z M1832.5,1121.5c3.7-0.2,7.3,0,11,0.5c4.3,1.8,8.8,3,13.5,3.5c3.7,2.7,4.2,5.9,1.5,9.5
		c-10.5,7-19,5.2-25.5-5.5c-2.1-1.9-4.2-3.8-6.5-5.5C1828.5,1123,1830.5,1122.2,1832.5,1121.5z M1781.5,1125.5c4.3-0.2,8.7,0,13,0.5
		c7.1,2.1,7.8,5.5,2,10c-3.7,0.3-7.3,0.7-11,1c-1.4,2.5-0.7,4.5,2,6c1.6,0.7,3.1,1.5,4.5,2.5c3.6,18.9-4.3,26.9-23.5,24
		c-1.3-1.8-2.8-3.5-4.5-5c-0.7-6.3-0.7-12.7,0-19c1.7-1.5,3.7-2.2,6-2c3.2,0.6,6.3,0.7,9.5,0.5c1.2-1.2,1.8-2.7,2-4.5
		c-0.2-1.8-0.8-3.3-2-4.5c-3.1-0.1-6.1,0.4-9,1.5c-1.5-0.6-2.8-1.4-4-2.5C1771,1130.1,1776,1127.3,1781.5,1125.5z M1740.5,1128.5
		c3.7,0.6,4.7,2.6,3,6c-4.9,2-9.9,2.7-15,2c-0.8-0.7-1.4-1.6-2-2.5C1731.2,1131.8,1735.8,1130,1740.5,1128.5z M1890.5,1129.5
		c6.8,0.6,13.3,2.2,19.5,5c2.6,3.9,1.6,5.9-3,6c-6.7-0.3-13.2-1.5-19.5-3.5C1886.4,1133.7,1887.4,1131.2,1890.5,1129.5z
		 M1815.5,1140.5c9.7-0.8,18.2,1.8,25.5,8c1.7,6.6,0.2,12.4-4.5,17.5c-6.8,2.8-13.7,2.6-20.5-0.5
		C1811.8,1157.1,1811.7,1148.8,1815.5,1140.5z M1874.5,1141.5c2.4-0.2,4.7,0,7,0.5c2.9,2.4,5.9,4.5,9,6.5c1.3,5,1.3,10,0,15
		c-1.8,1.4-3.8,2.6-6,3.5c-7.7,1.4-15.1,0.4-22-3c-1.2-0.9-2-2.1-2.5-3.5c-0.1-4.2,0.9-8.2,3-12
		C1866.5,1145.5,1870.3,1143.2,1874.5,1141.5z M1916.5,1144.5c23.9-2.5,30.1,6.9,18.5,28c-2.9,2.9-6.4,3.7-10.5,2.5
		c-9.4-3.9-13.8-11.1-13-21.5C1911.4,1149.4,1913,1146.4,1916.5,1144.5z M1731.5,1146.5c3.9-0.4,7.1,0.9,9.5,4
		c5.7,16.2-0.1,24.2-17.5,24c-4.8-0.7-8-3.3-9.5-8c-1.5-6.4,0.3-11.6,5.5-15.5C1723.7,1149.8,1727.7,1148.3,1731.5,1146.5z
		 M1672.5,1152.5c16.8-2.1,23.3,5.3,19.5,22c-0.8,1.5-2,2.7-3.5,3.5c-5.2,2-10.5,2.6-16,2c-1.4-0.5-2.6-1.3-3.5-2.5
		c-2.1-3.9-3.9-7.9-5.5-12c0.1-1.8,0.6-3.5,1.5-5C1667.7,1158,1670.2,1155.3,1672.5,1152.5z M1274.5,1488.5
		c-26.4-13.3-52.4-27.5-78-42.5c-102.6-63.6-203.2-129.9-302-199c-15-10.2-30.3-19.8-46-29c-19-14.3-38-28.7-57-43
		c-3.8-1.8-7.5-3.8-11-6c3.3-0.7,6.7-0.7,10,0c20.4,8.5,41.1,16.5,62,24c73.4,33,146.1,67.7,218,104c53.7,29.2,106.3,59.8,158,92
		c48.8,32.7,96.2,67.4,142,104c-2.9,5.9-6.9,10.9-12,15c-2,0.7-4,0.7-6,0c-101.2-67.1-203.5-132.4-307-196
		c-26.2-19.6-53.6-37.6-82-54c-5-2.2-9.8-2-14.5,0.5c-4,5.7-3.1,10.5,2.5,14.5c89.2,59.8,178.8,118.8,269,177
		c11.8,8.1,23.5,16.4,35,25c5.4,2.1,10.8,4.5,16,7C1272.9,1484,1273.9,1486.2,1274.5,1488.5z M2822.5,1169.5c2.1-0.3,4.1,0,6,1
		c-104.8,75.4-211.8,147.9-321,217.5c-16,11.3-32,22.7-48,34c-41.9,21.1-82.9,43.4-123,67c-2.4,1.3-4.9,2.5-7.5,3.5
		c-1.7-1.2-1.6-2.3,0.5-3.5c4.6-3.1,9.6-5.5,15-7c2.4-3.7,5.7-5.7,10-6c26.6-17.6,53.9-34.3,82-50
		c78.1-51.8,155.9-103.9,233.5-156.5c1.1-10.2-3.4-14.7-13.5-13.5c-34.4,19.5-67.7,40.5-100,63c-103.7,64.2-206.4,129.8-308,197
		c-9.6,2.1-15.3-1.9-17-12c0.4-2.6,1.4-5,3-7c21-14.8,41.7-30.2,62-46c50.1-37.9,102.4-72.6,157-104
		C2572.1,1278.7,2695.1,1219.5,2822.5,1169.5z M1850.5,1173.5c3.8,1.5,6.2,4.3,7,8.5c-3,3.3-6.7,4.7-11,4
		C1842.9,1180.1,1844.2,1176,1850.5,1173.5z M1892.5,1174.5c2.7,0.1,5.4,0.4,8,1c0.3,2.4,0.9,4.8,2,7c-3.1,4.7-6.6,5.1-10.5,1
		C1889.9,1180.3,1890.1,1177.3,1892.5,1174.5z M1823.5,1186.5c6.4,0.4,11.6,3.1,15.5,8c0.5,4.5-0.2,8.8-2,13
		c-0.7,2.6-2.2,4.4-4.5,5.5c-6.8,1.9-12.3,0.1-16.5-5.5c0.2-5.6,0.5-11.3,1-17C1819,1188.8,1821.2,1187.4,1823.5,1186.5z
		 M1789.5,1187.5c3.5-0.3,5.4,1.4,5.5,5c0.7,5.7,0.7,11.3,0,17c-6.8,8.1-14.1,8.7-22,2c-0.7-6-0.7-12,0-18c0.8-0.8,1.7-1.7,2.5-2.5
		C1780.3,1189.8,1784.9,1188.6,1789.5,1187.5z M1867.5,1188.5c15.4,0.3,20.6,8,15.5,23c-2.6-1.4-5.5-2.1-8.5-2
		c-5.1,0.5-10.1,1.5-15,3C1858.4,1203.1,1861.1,1195.1,1867.5,1188.5z M1741.5,1192.5c11.1,1.6,15.2,7.9,12.5,19
		c-1.1,2.3-2.9,3.8-5.5,4.5c-15,5.6-21.8,0.4-20.5-15.5c0.7-1.6,1.5-3.1,2.5-4.5C1734.2,1194.4,1737.8,1193.2,1741.5,1192.5z
		 M1907.5,1192.5c7.2-0.9,13.7,0.8,19.5,5c0.3,7.3-2.2,13.5-7.5,18.5c-13.2-0.2-18.7-6.7-16.5-19.5
		C1904.4,1194.9,1905.9,1193.6,1907.5,1192.5z M1698.5,1196.5c5.8-0.8,9.3,1.5,10.5,7c0.7,5,0.7,10,0,15c-0.8,2.2-2.3,3.7-4.5,4.5
		c-10,2.3-16.2-1.5-18.5-11.5c-1-4.5,0.1-8.4,3.5-11.5C1692.5,1198.4,1695.5,1197.2,1698.5,1196.5z M1404.5,1202.5
		c2.5,1.1,3.5,2.8,3,5C1405.2,1206.6,1404.2,1204.9,1404.5,1202.5z M1657.5,1209.5c1.2,0.5,2.4,1.2,3.5,2c1.5,3.4,2.7,6.9,3.5,10.5
		c-3.7,1-5.9-0.5-6.5-4.5C1657.5,1214.8,1657.3,1212.2,1657.5,1209.5z M1851.5,1214.5c2.1-0.3,4.1,0,6,1c-0.9,2.3-1.8,4.6-2.5,7
		C1842.2,1225,1841.1,1222.4,1851.5,1214.5z M1884.5,1215.5c5.7,2.2,8.2,6.2,7.5,12c-3.5,2.3-6.2,1.3-8-3
		C1883.5,1221.5,1883.7,1218.5,1884.5,1215.5z M1700.5,1233.5c2.5,2.7,2.6,5.7,0.5,9C1699.2,1239.6,1699,1236.6,1700.5,1233.5z
		 M1799.5,1234.5c34.5-0.1,68.5,3.8,102,11.5c3.5,1,5.8,3.1,7,6.5c-5,9.3-7.5,19.3-7.5,30c-2.4,2.2-5.2,3.5-8.5,4
		c-57-10.6-114-10.6-171,0c-6.6-0.8-10.4-4.4-11.5-11c-0.3-3.7-0.7-7.3-1-11c-1.7-3.5-2.8-7.2-3.5-11c0.7-5.1,3.7-7.9,9-8.5
		c12.8-1.4,25.4-3.4,38-6C1768.3,1236.8,1783.9,1235.3,1799.5,1234.5z M1607.5,1252.5c1.3-0.2,2.5,0.2,3.5,1c0.9,4.8,2.4,9.5,4.5,14
		c-0.3,1-1,1.7-2,2C1610.6,1264.1,1608.6,1258.4,1607.5,1252.5z M712.5,1289.5c42.5,11.8,85.2,23.3,128,34.5c25.6,11,52,20,79,27
		c99.9,35.3,197.2,76.6,292,124c40.8,21.6,80.5,44.6,119,69c-0.6,6.7-3.2,12.4-8,17c-2.9,1.3-5.9,1.7-9,1
		c-107.7-55.5-216.3-108.8-326-160c-30.7-16-61.7-31.5-93-46.5c-5.6,1.4-7.9,5.1-7,11c-0.2,5.5,2.2,9.7,7,12.5c16,7,32,14,48,21
		c3,1.5,5.7,3.5,8,6c101.9,50.8,202.9,101.4,303,152c-2,0.7-4,0.7-6,0c-24.2-11.4-49-21.2-74.5-29.5c-2-1.7-4-3.3-6-5
		c-0.3,0.3-0.7,0.7-1,1c-20.7-9.7-41.6-19.2-62.5-28.5c-6.2-3.9-12.5-7.6-19-11c-6.8-1.4-12.8-4.4-18-9c-4.2-1.9-8.5-3.3-13-4
		c-12.7-7.7-25.7-15.1-39-22c-56.2-27.1-111.6-55.8-166-86c-26.5-12.8-52.9-25.8-79-39c-19.1-12.2-38.7-23.4-59-33.5
		C711.2,1290.8,711.9,1290.2,712.5,1289.5z M2897.5,1290.5c1.2-0.2,2.2,0.1,3,1c-27.8,15.8-55.8,31.2-84,46.5
		c-109.6,55.8-219,112.2-328,169c-24.1,8.2-47.8,17.2-71,27c-14.1,7.1-28.5,13.5-43,19c-3.8,0.6-4.5-0.4-2-3c9.4-1.9,17.8-5.9,25-12
		c8.5-3.1,16.5-7.1,24-12c9.6-3.9,19.2-7.6,29-11c92-48,184.6-95,278-141c4.6-3.4,6.1-7.9,4.5-13.5c-2.4-5.6-6.5-7.4-12.5-5.5
		c-4,1.3-8,2.7-12,4c-130.3,63.5-260.3,127.5-390,192c-14.7,6.8-29.7,13-45,18.5c-5.5-4.1-7.4-9.5-5.5-16
		c8.9-7.6,18.8-13.7,29.5-18.5c5.8-5.1,12.1-9.4,19-13c48.5-27.1,97.5-53.4,147-79c63.8-25.7,127.4-51.7,191-78
		c43.1-13.5,85.8-28.2,128-44C2821.1,1311.3,2859.4,1301.1,2897.5,1290.5z M1788.5,1292.5c9.8-0.4,12.5,3.8,8,12.5
		c-9.5,2.3-19.2,3-29,2c-4.4-2.5-5.1-5.9-2-10C1773.3,1295.5,1780.9,1294,1788.5,1292.5z M1830.5,1293.5c8.7,1.2,17.3,2.4,26,3.5
		c2.8,3,3.6,6.5,2.5,10.5c-1.3,1.1-2.8,1.7-4.5,2c-8.3-1.3-16.6-2.1-25-2.5c-2.4-1.5-3.4-3.6-3-6.5
		C1826.2,1297.2,1827.5,1294.8,1830.5,1293.5z M1712.5,1298.5c6.9-1.4,12.2,0.8,16,6.5c-4.5,5.2-10.2,6.9-17,5
		C1708.8,1305.9,1709.1,1302.1,1712.5,1298.5z M2105.5,1302.5c0.4,2.9-0.8,5.6-3.5,8C2100.8,1306.7,2101.9,1304,2105.5,1302.5z
		 M2258.5,1358.5c1.5,0,2,0.7,1.5,2c-1.6,2.6-3.7,3.8-6.5,3.5C2255,1362,2256.7,1360.1,2258.5,1358.5z M1359.5,1367.5
		c4.3,0.5,6.2,2.8,5.5,7C1361.8,1373.2,1360,1370.8,1359.5,1367.5z M1778.5,1373.5c4.8-0.9,8.3,0.8,10.5,5
		c2.6,13.8-2.9,18.8-16.5,15c-1.8-4.1-3.5-8.3-5-12.5c0.6-1.6,1.6-2.9,3-4C1773.2,1375.5,1775.8,1374.4,1778.5,1373.5z
		 M1844.5,1375.5c8.8,0.3,12,4.7,9.5,13c-1.2,5.2-4.4,7.1-9.5,5.5c-6.7-2.6-8.8-7.5-6.5-14.5
		C1840,1377.8,1842.2,1376.4,1844.5,1375.5z M1728.5,1377.5c5.7-0.2,11.3,0,17,0.5c1.2,4.4,1.7,8.9,1.5,13.5c-2.5,2.5-5,5-7.5,7.5
		c-4.6,1.3-9.2,1.8-14,1.5c0.4-5.3-0.6-10.3-3-15C1723.4,1381.9,1725.4,1379.3,1728.5,1377.5z M1675.5,1385.5c5.3,0.4,8.8,3,10.5,8
		c2.5,5.3,2,10.1-1.5,14.5c-1.3,0.7-2.7,0.7-4,0c-3.3-3.3-5.8-7.1-7.5-11.5C1672.1,1392.4,1673,1388.7,1675.5,1385.5z
		 M1935.5,1386.5c1-0.1,1.8,0.2,2.5,1c0.2,12.8-3.6,24.1-11.5,34c-1.4-0.5-2.1-1.5-2-3c1.2-9.6,3.4-18.9,6.5-28
		C1932.4,1388.9,1933.9,1387.6,1935.5,1386.5z M1636.5,1395.5c3.1-0.6,5.2,0.4,6.5,3c1.2,5.2,2.3,10.3,3.5,15.5c0.1,1.7-0.6,3-2,4
		c-2.3,0.7-4.7,0.7-7,0C1631.7,1410.5,1631.3,1403,1636.5,1395.5z M1975.5,1397.5c2.2-0.3,4.1,0.3,5.5,2c-1.3,12.2-6.1,22.9-14.5,32
		c-2.2-1.3-3.6-3.3-4-6c2.7-7.4,5.6-14.7,8.5-22C1971.8,1400.8,1973.3,1398.8,1975.5,1397.5z M1596.5,1408.5c2-0.1,3.7,0.6,5,2
		c3.9,5.6,6.6,11.8,8,18.5c-0.4,2.9-2.1,4.8-5,5.5c-7.1-4.1-12.1-10.1-15-18C1591.2,1413.2,1593.5,1410.5,1596.5,1408.5z
		 M1784.5,1410.5c6.1-0.2,12.1,0.1,18,1c7.4,15.9,2.4,24.6-15,26c-7.7-1.4-11.7-6-12-14C1776.3,1417.5,1779.3,1413.2,1784.5,1410.5z
		 M1740.5,1413.5c11.8-2.6,17.4,2.1,17,14c-4.9,8.4-12.2,12.1-22,11c-7.5-6.6-8.5-13.9-3-22
		C1735.2,1415.2,1737.9,1414.2,1740.5,1413.5z M1834.5,1413.5c5.7-0.1,11.4,0.2,17,1c-0.1,4.5,0.2,9,1,13.5c-0.2,5.2-2.8,8.2-8,9
		c-5.8,0.8-11.4,0.5-17-1c-2.7-1.9-4.4-4.4-5-7.5c0.8-4.2,2.6-7.9,5.5-11C1829.8,1415.4,1832,1414,1834.5,1413.5z M2016.5,1414.5
		c1-0.1,1.8,0.2,2.5,1c0.8,12.3-4.2,21.6-15,28c-0.8-4.9-0.1-9.5,2-14C2008.9,1424.1,2012.4,1419.1,2016.5,1414.5z M2962.5,1417.5
		c1.9-0.2,2.7,0.4,2.5,2c-121.8,47.7-243.9,94.2-366.5,139.5c-4.4,0.5-8.8,1.5-13,3c-12.4,5.4-25,10.1-38,14
		c-27.6,12.4-56.2,21.4-86,27c-0.7,0.7-1.3,1.3-2,2c-17.4,2.2-34,6.9-50,14c-3,0.7-6,0.7-9,0c2.7-3,6-5,10-6
		c16.1-2.2,31.5-6.9,46-14c12.7-1.6,24.4-5.9,35-13c4.6-1.1,9.3-2.1,14-3c8.2-3.9,16.6-7.6,25-11c39.8-11.8,78.8-25.8,117-42
		c22.1-6.3,43.7-13.7,65-22c18.4-8.9,37.1-17.2,56-25c4.2-4.9,3.8-9.6-1-14c-3-0.7-6-0.7-9,0c-26.6,5.7-52.3,14.1-77,25
		c-14.5,5.6-29.1,10.6-44,15c-1.6,0.6-2.9,1.6-4,3c-31.9,8.6-62.9,19.6-93,33c-29.1,10.3-58.5,19.9-88,29c-28,11.1-56.3,21.8-85,32
		c-20.7,6.4-41.4,12.9-62,19.5c-6.8-3.2-9.3-8.6-7.5-16c2.6-3,5.7-5.2,9.5-6.5c51.8-21.7,103.4-43.7,155-66
		c29.4-11.3,59.4-20.7,90-28c29.3-8.7,58.7-17.3,88-26c48.7-11.7,97.3-23.3,146-35c54.9-11.9,110.2-20.9,166-27
		C2956.2,1420.7,2959.6,1419.5,2962.5,1417.5z M1881.5,1418.5c7.3-1.1,13.8,0.6,19.5,5c4.1,11.6,0.1,17.9-12,19
		c-4.7-0.8-9.2-2.2-13.5-4c-2.4-4.9-2.6-9.9-0.5-15C1877,1421.4,1879.1,1419.8,1881.5,1418.5z M1695.5,1420.5
		c6.6-1.6,10.8,0.7,12.5,7c2.1,7-0.1,12.2-6.5,15.5c-14.7,5.4-21.2,0.2-19.5-15.5C1685.9,1423.9,1690.4,1421.6,1695.5,1420.5z
		 M664.5,1423.5c57.5,5,114.5,13.5,171,25.5c51.5,13.1,103.2,25.8,155,38c23.1,7.1,46.1,14.5,69,22c29.3,6.6,57.9,15.3,86,26
		c4.8,2.9,9.8,5.6,15,8c45.1,17.2,89.8,35.6,134,55c1.2,0.9,2,2.1,2.5,3.5c0.3,6.6-1.2,12.8-4.5,18.5c-1.7,0.7-3.3,0.7-5,0
		c-89.6-31.4-179.2-62.4-269-93c-52.9-19.2-105.6-38.2-158-57c-5.6-0.4-10.9-1.7-16-4c-4.3-0.7-8.7-0.7-13,0
		c-5.6,1.5-7.4,5-5.5,10.5c5.5,2.2,10.7,5,15.5,8.5c22.4,8.5,44.7,17.1,67,26c76.7,26.5,153,53.8,229,82c2.6,1.9,4.4,4.4,5.5,7.5
		c0.7-1.9,0.6-3.8-0.5-5.5c0.5-0.2,1-0.3,1.5-0.5c5.2,2.7,10.4,5.5,15.5,8.5c14.4,0.1,27.4,4.2,39,12.5c0.8-0.4,1.6-0.8,2.5-1
		c5.1,1.4,10.3,2.5,15.5,3.5c5.2,3.1,10.5,5.9,16,8.5c-1.6,1.1-3.2,1.3-5,0.5c-8.6-2.2-17-5.2-25-9c-15.1-2.4-29.8-6.4-44-12
		c-3-0.3-6-0.7-9-1c-20.2-8-40.7-14.2-61.5-18.5c-12.4-5.6-24.9-10.7-37.5-15.5c-18-5.3-36-10.7-54-16c-7.9-5.1-16.2-9.4-25-13
		c-103.8-37.1-206.8-76.1-309-117C663.4,1424.7,664.1,1424.2,664.5,1423.5z M1312.5,1424.5c1.4-0.2,2.7,0,4,0.5c8.4,8.5,7.7,9.8-2,4
		C1313.4,1427.7,1312.8,1426.2,1312.5,1424.5z M1918.5,1451.5c0.6-1.1,1.5-2.1,2.5-3c0.9-5.1,2.2-10.1,4-15
		c4.1-5.2,9.3-6.4,15.5-3.5c4.5,2.8,8.8,5.8,13,9c-4.6,2.3-8.3,5.6-11,10C1934.5,1450.2,1926.5,1451,1918.5,1451.5z M1650.5,1430.5
		c9.6,1.9,13.1,7.6,10.5,17c-5.8,8.4-13.6,11.2-23.5,8.5c-5.2-6.4-5.7-12.9-1.5-19.5C1641,1434.8,1645.9,1432.8,1650.5,1430.5z
		 M1538.5,1432.5c6,0.9,11.2,3.6,15.5,8c2.7,4.7,5.3,9.3,8,14c0.5,2.1,0,3.9-1.5,5.5c-3.3,0.1-6.7-0.2-10-1
		c-3.8-4.8-8-9.3-12.5-13.5C1534.5,1441,1534.7,1436.6,1538.5,1432.5z M2063.5,1439.5c6,0,8.8,3,8.5,9c-3.6,9.6-9.9,16.6-19,21
		c-1.3-0.7-2.7-1.3-4-2c-0.7-3-0.7-6,0-9c3.1-3.2,5.5-6.8,7-11C2058.7,1445,2061.2,1442.3,2063.5,1439.5z M1974.5,1441.5
		c7.9-0.2,14.6,2.4,20,8c-3.8,12.9-8.3,25.6-13.5,38c-0.7,3.3-1.3,6.7-2,10c-6.4,13.8-13.1,27.5-20,41c-4.9,5.5-8.7,4.7-11.5-2.5
		c8.1-13.3,15.2-27.1,21.5-41.5c3.4-5.8,7.1-11.5,11-17c0.7-2,0.7-4,0-6c-7.9-6.2-11.6-14.2-11-24
		C1970.4,1445,1972.2,1443,1974.5,1441.5z M1603.5,1444.5c5,0.5,8.8,2.8,11.5,7c0.3,4.2,0.3,8.5,0,13c-4.9,6.5-11.4,9.4-19.5,8.5
		c-8.8-4.6-10.6-11.1-5.5-19.5C1593.9,1449.4,1598.4,1446.4,1603.5,1444.5z M1817.5,1444.5c7.2,1,13.3,4,18.5,9
		c2,4.1,2.8,8.4,2.5,13c-0.7,13.9-2.8,27.6-6.5,41c-5.4,0.8-10.9,1.5-16.5,2c-5.2-0.4-7.9-3.2-8-8.5c1.9-16.8,3.7-33.7,5.5-50.5
		C1813.6,1447.8,1815.1,1445.8,1817.5,1444.5z M2269.5,1444.5c0.9-0.1,1.5,0.2,2,1c-2.1,5.2-5.8,7.5-11,7c0.6-1.8,1.6-3.3,3-4.5
		C2265.7,1447.1,2267.7,1445.9,2269.5,1444.5z M1743.5,1448.5c5,0,10,0,15,0c0.8,19.7,1,39.3,0.5,59c-0.7,1.5-1.9,2.5-3.5,3
		c-3.5-1.2-6.4-3.2-8.5-6c-2.7-15.5-5.2-31-7.5-46.5c0.2-1.8,0.3-3.7,0.5-5.5C1741.4,1451.3,1742.5,1450,1743.5,1448.5z
		 M1918.5,1451.5c0.8,1.4,1.4,2.9,2,4.5c-7.2,20.7-15.1,41.2-23.5,61.5c-1.2,1.4-2.7,2.4-4.5,3c-1.2-3.6-1.3-7.3-0.5-11
		c4.2-11.6,8.2-23.3,12-35C1907.3,1465.8,1912.2,1458.1,1918.5,1451.5z M2256.5,1455.5c0.5,0.1,0.9,0.4,1,1c-2.2,4-5.6,5.5-10,4.5
		C2250.3,1458.6,2253.3,1456.8,2256.5,1455.5z M1696.5,1457.5c5.1,1.3,8.9,4.3,11.5,9c2.1,9.4,5.2,18.4,9.5,27
		c-0.5,2.9,0.3,5.6,2.5,8c0.4,2.3,0.9,4.7,1.5,7c-0.8,3.1-2.8,4.7-6,5c-1.8-0.6-3.3-1.6-4.5-3c-7.8-15.6-13.9-31.8-18.5-48.5
		C1693.4,1460,1694.7,1458.5,1696.5,1457.5z M1951.5,1458.5c2.2,0.9,3.2,2.6,3,5c-8.5,21.6-17.7,42.9-27.5,64
		C1926.7,1501.5,1934.9,1478.5,1951.5,1458.5z M1502.5,1459.5c12.4,2.6,21.1,9.7,26,21.5c-1.5,2.9-3.8,3.9-7,3
		c-8.8-2.7-16.3-7.6-22.5-14.5C1498.2,1465.4,1499.4,1462.1,1502.5,1459.5z M2015.5,1464.5c6-0.2,11.3,1.7,16,5.5
		c2.7,0.3,5.3,0.7,8,1c3.1,2.4,3.6,5.2,1.5,8.5c-4,3.3-8,6.7-12,10c-0.3,3.3-0.7,6.7-1,10c-1.4,2.1-2.4,4.5-3,7
		c-4.2,6.2-8.2,12.5-12,19c-6,5.7-11.7,11.7-17,18c-2.9,7.2-7.5,12.9-14,17c-0.9-0.8-1.4-1.8-1.5-3c1.2-4.1,2.7-8.1,4.5-12
		c12.2-16.2,25.2-31.9,39-47c0.8-3.7,0.7-7.4-0.5-11c-4.7-2-9-4.5-13-7.5c-0.9-1.2-1.6-2.5-2-4
		C2010.2,1471.8,2012.6,1467.9,2015.5,1464.5z M1661.5,1465.5c4.4-0.6,7.6,1.1,9.5,5c2.8,5.8,5.8,11.5,9,17
		c2.7,11.4,6.6,22.4,11.5,33c-5.6,1.9-9.7,0.3-12.5-5c-3.9-8.1-7.2-16.4-10-25c-2.2-5-4.8-9.7-8-14
		C1659.2,1472.6,1659.4,1468.9,1661.5,1465.5z M2100.5,1466.5c7,0.2,8.9,3.6,5.5,10c-6.4,5.7-13.4,10.3-21,14
		c-0.9-0.6-1.4-1.4-1.5-2.5c2.1-7.3,5.8-13.6,11-19C2096.6,1468.2,2098.6,1467.3,2100.5,1466.5z M1627.5,1469.5
		c2.1,0.5,4.1,1.4,6,2.5c6.8,10.8,12.3,22.3,16.5,34.5c3.3,8,7.7,15.3,13,22c0.8,1.1,0.6,2.1-0.5,3c-5.5,2.7-10.3,1.7-14.5-3
		c-8.3-18.3-15.8-37-22.5-56C1626.2,1471.5,1626.9,1470.5,1627.5,1469.5z M1558.5,1470.5c5.7,0.5,9.5,3.5,11.5,9
		c1.9,7.1-0.6,11.9-7.5,14.5c-14.6,3-20-2.6-16-17C1550.4,1474.5,1554.4,1472.4,1558.5,1470.5z M1583.5,1486.5c1.8-0.3,3.4,0.1,5,1
		c10.6,21.4,24.1,40.7,40.5,58c2.1,5.3,0.2,7.5-5.5,6.5c-9.9-10.9-19.4-22-28.5-33.5c-6.1-8.5-10.2-17.8-12.5-28
		C1582.6,1489.1,1583,1487.7,1583.5,1486.5z M1274.5,1488.5c4.8-0.5,9.1,0.6,13,3.5c7.2,5.1,14.9,9.4,23,13c1.3,1.5,1,2.7-1,3.5
		c-9.7-4.8-19.4-9.7-29-14.5C1278,1492.7,1276,1490.8,1274.5,1488.5z M2055.5,1488.5c6.6,0.9,12.9,2.8,19,5.5c6.8,6.9,6.4,13.6-1,20
		c-2.4,1.9-5.1,3.2-8,4c-17.9,19.5-36.7,38-56.5,55.5c-1.4-1.1-1.7-2.4-1-4c2.7-4,5.4-8,8-12c13.3-13.3,26.7-26.7,40-40
		c2.3-4.2,1.6-7.9-2-11c-1.8-5.4-2.1-10.8-1-16C2054,1489.9,2054.8,1489.3,2055.5,1488.5z M1459.5,1491.5c6.2,1,11.4,4,15.5,9
		c2.4,3.8,5.1,7.5,8,11c1,2.5,1.8,5,2.5,7.5c-1.7,0.7-3.3,0.7-5,0c-8.9-2.3-16.7-6.5-23.5-12.5
		C1454.6,1500.9,1455.4,1495.9,1459.5,1491.5z M1516.5,1499.5c6.1-1.6,10.3,0.4,12.5,6c1.7,18.3-5.5,22.8-21.5,13.5
		c-1.2-0.9-2-2.1-2.5-3.5c-0.7-3.7-0.7-7.3,0-11C1508.5,1501.9,1512.4,1500.3,1516.5,1499.5z M2139.5,1503.5c8.8,0,10.5,3.8,5,11.5
		c-9.2,4.8-18.2,9.8-27,15c0.6,6.7-1.8,12-7,16c-4.3,0.5-8.3,1.9-12,4c-21.6,18.9-43.8,37.1-66.5,54.5c0-2.1,0.7-4.1,2-6
		c6.5-6.2,12.7-12.7,18.5-19.5c7.2-6.1,14.2-12.4,21-19c7.3-2.6,13.4-6.8,18.5-12.5c2.3-6.6,1.6-12.9-2-19
		c-1.3-7.9,1.9-10.4,9.5-7.5c5.8,2.2,11.5,4.7,17,7.5c5.3-6.2,10.5-12.5,15.5-19C2134.1,1506.9,2136.6,1504.9,2139.5,1503.5z
		 M1547.5,1508.5c1.1-0.2,2.1,0,3,0.5c17.7,17.7,34.9,35.9,51.5,54.5c0.7,1.6,0.4,2.9-1,4c-13.1-7.4-24.8-16.8-35-28
		c-6.2-7.5-12.2-15.2-18-23C1547.5,1513.8,1547.3,1511.2,1547.5,1508.5z M1481.5,1529.5c3.8-0.7,6.9,0.3,9.5,3
		c5.2,8.2,4.3,15.7-2.5,22.5c-11.6,4.5-18.9,0.8-22-11C1468.1,1535.5,1473.1,1530.7,1481.5,1529.5z M1421.5,1533.5
		c3.6-0.3,7,0.5,10,2.5c6.8,6.8,12.8,14.1,18,22c-10.6-0.6-20.6-3.6-30-9c-2.1-1.3-3.1-3.1-3-5.5
		C1417.3,1539.7,1419,1536.4,1421.5,1533.5z M1506.5,1536.5c3.2,0.6,6.2,1.8,9,3.5c14.8,12.5,29.3,25.3,43.5,38.5
		c3.4,4.4,6.4,9.1,9,14c0.5,1.8,0.2,3.5-1,5c-19.7-17-39.3-34-59-51C1505.9,1543.3,1505.4,1540,1506.5,1536.5z M2176.5,1544.5
		c7.5-1.2,10.5,1.8,9,9c-11.5,4.9-22.9,10.1-34,15.5c-3.7,3.2-6.5,7-8.5,11.5c-5,4.1-10.5,4.9-16.5,2.5c1.1-2.4,1.3-4.9,0.5-7.5
		c-1.5-3.9-2.6-7.9-3.5-12c0.6-2.1,1.4-4.1,2.5-6c2,1.3,4,1.3,6,0c3.8,3.8,8.1,6.8,13,9c1.5-0.5,3-1,4.5-1.5c2.3-3.3,5-6.3,8-9
		C2163.9,1552.1,2170.2,1548.3,2176.5,1544.5z M2945.5,1554.5c15.3-0.2,30.7,0,46,0.5c-4.4,2.6-9.1,4.6-14,6
		c-25.1,7-50.1,14.4-75,22c-33,8.8-66,17.1-99,25c-6.4-0.3-12.4,1-18,4c-58.3,15.2-117,29.2-176,42c-24.2,5.9-48.2,12.5-72,20
		c-36.7,5.3-73.3,10.5-110,15.5c0,1,0,2,0,3c-9.7,0.9-19.4,2.1-29,3.5c-9.8,3.3-19.8,5-30,5c0.7-1,1.3-2,2-3c13.9-2,27.6-5,41-9
		c11.1-0.9,22.1-2.6,33-5c21.5-5.9,43.2-11.3,65-16c15.7-5.6,31.7-10.3,48-14c59.5-11.5,118.2-26.2,176-44c10.9-1.3,21.2-4.3,31-9
		c13.6-2.8,27.1-6,40.5-9.5c2.6-6.9,1.1-12.8-4.5-17.5c-3.3-0.7-6.7-0.7-10,0c-35.4,7.9-70.8,16.3-106,25c-6,0.9-12,1.9-18,3
		c-74.5,19.9-148.9,37.9-223,54c-35.1,9.6-70.5,18.6-106,27c-4.7,0.8-9.4,0.7-14-0.5c-1.6-3.6-2.9-7.2-4-11c0.4-3.6,2.4-5.8,6-6.5
		c66.2-20.1,132.5-39.5,199-58c74.8-12.8,149.5-25.1,224-37c7.7-0.3,15.3-0.7,23-1c12.7-1.6,25.4-3.3,38-5c12.7,0.6,25.4-0.4,38-3
		c30.2-2.8,60.6-4.5,91-5C2941,1555.8,2943.4,1555.3,2945.5,1554.5z M620.5,1555.5c102.6,1.6,204.4,9.2,305.5,23
		c37.7,6.9,75.6,13.4,113.5,19.5c34.7,7.3,69.4,14.9,104,23c13.2,4.6,26.6,9,40,13c27.7,7.5,55.4,15.2,83,23
		c1.5,1.1,2.3,2.6,2.5,4.5c0.7,4.7,0.7,9.3,0,14c-1.5,3-4,4.3-7.5,4c-45.4-8.4-90.4-18.6-135-30.5c-39-8.1-77.5-16.6-115.5-25.5
		c-4.2-2.2-8.7-3.7-13.5-4.5c-7.7-0.8-15.3-1.5-23-2c-4.9-3.3-10.2-5.6-16-7c-34.5-7.2-68.8-15.2-103-24c-17.1-4.5-34.4-7.2-52-8
		c-4.7,2.9-6.2,7.1-4.5,12.5c1.2,1.6,2.7,2.7,4.5,3.5c17.9,6.8,36,11.3,54.5,13.5c11.7,4.8,23.9,8,36.5,9.5
		c38.4,12,77.4,21.4,117,28c22.8,6.1,45.8,11.8,69,17c21.8,6.9,43.8,13.3,66,19c5.4,0.4,10.7,1.1,16,2c6.7,2.2,13.6,4.1,20.5,5.5
		c1.4-0.2,2.7-0.5,4-1c9,2.8,18.2,5,27.5,6.5c-5.8,2.2-11.5,1.9-17-1c-23.8-2.3-47.4-5.7-71-10c-3.2-1.6-6.5-2.6-10-3
		c-13.8-1.8-27.4-4.1-41-7c-30.1-7.5-60-15.1-90-23c-12.6-2.6-25.3-4.9-38-7c-109.2-26.5-217.8-54.8-326-85
		C620.7,1557.3,620.4,1556.5,620.5,1555.5z M1447.5,1565.5c5.8-1,10.8,0.5,15,4.5c8.9,1.4,17.2,4.4,25,9c17.3,11.3,34.7,22.7,52,34
		c6.1,7.6,4.4,10.2-5,8c-24.3-13.5-47.7-28.5-70-45c-1.9-0.7-3.8-0.6-5.5,0.5c-1.2,4.9-2.2,9.9-3,15c-0.7,2.9-2.6,4.6-5.5,5
		c-12.4-1.6-17.3-8.6-14.5-21C1438.8,1570.8,1442.7,1567.5,1447.5,1565.5z M1386.5,1581.5c11.2-0.1,20.5,3.9,28,12
		c-1.2,3.7-3.7,5.7-7.5,6c-6.2-0.6-12.4-1.4-18.5-2.5C1381.5,1592.6,1380.9,1587.4,1386.5,1581.5z M2122.5,1585.5
		c0.5,0.1,0.9,0.4,1,1c-2.1,4.6-5.1,8.4-9,11.5c-16.4,11.4-33.1,22.4-50,33c-2,0.5-4,0.7-6,0.5c-0.7-3.8,0.7-6.6,4-8.5
		c18.2-12.7,37.1-24.5,56.5-35.5c0.3,0.3,0.7,0.7,1,1C2120.7,1587.3,2121.5,1586.3,2122.5,1585.5z M2212.5,1587.5
		c5.8,0.9,7.3,3.9,4.5,9c-1.8,1.8-3.7,3.7-5.5,5.5c-9.1,2.8-18.1,5.8-27,9c-12.4,4.1-15.3,11.9-8.5,23.5c7.9,2.9,13.6,8.2,17,16
		c4.4,3.4,9.3,3.9,14.5,1.5c9.7-5.2,19.3-10.3,29-15.5c3.4,1.5,5.4,4.2,6,8c-0.6,1.8-1.6,3.3-3,4.5c-12.1,4.1-24.4,6.8-37,8
		c-4.2,2.2-7.9,5.2-11,9c-5.8,3.9-10.3,2.8-13.5-3.5c-1.2-7.3-1.9-14.6-2-22c-1.8-2-2.8-4.3-3-7c-5.1-8.6-12.6-11.5-22.5-8.5
		c-10.8,10.2-23.2,18.2-37,24c-10.5,4.2-21,8.3-31.5,12.5c-0.4-0.9-0.9-1.8-1.5-2.5c4-2.7,8-5.3,12-8c19.5-9.2,38.8-18.7,58-28.5
		c1.5-2.4,2.2-5.1,2-8c-0.4-5-1.1-10-2-15c0.1-1.6,0.4-3.1,1-4.5c7.2,0.9,12.9,4.4,17,10.5c1.1,0.5,2.3,0.9,3.5,1
		c3.7-1.2,7.5-2,11.5-2.5c1-1,2-2,3-3C2195.5,1596.7,2204.1,1592.2,2212.5,1587.5z M1418.5,1604.5c10-1.1,14.5,3.2,13.5,13
		c-1.5,4.3-2.8,8.6-4,13c-0.5,1.2-1.3,2-2.5,2.5c-9.6,3.2-15.6,0.1-18-9.5c0.5-2.4,1.4-4.8,2.5-7
		C1413.1,1612.7,1415.9,1608.7,1418.5,1604.5z M1444.5,1612.5c2.4,0,4.8,0.5,7,1.5c22.7,11.7,45,23.8,67,36.5c1.7,4.2,0.3,6-4,5.5
		c-23.4-9-46.1-19.7-68-32C1441.2,1620.7,1440.5,1616.8,1444.5,1612.5z M2388.5,1619.5c3.4,0.4,6.7,1.1,10,2c-0.2,0.6-0.5,1.1-1,1.5
		c-6.3,0.9-12.5,2.4-18.5,4.5c-1.2-0.4-2.4-0.9-3.5-1.5c2.9-1.2,5.9-2.2,9-3C2386.3,1622.3,2387.7,1621.2,2388.5,1619.5z
		 M1359.5,1627.5c8.3,3.4,16.3,7.6,24,12.5c1.4,1.4,2.4,3.1,3,5c6.7,1.8,13.4,3.8,20,6c1.8,1.7,3.8,3.2,6,4.5
		c-2.6,9.1-6.7,17.5-12.5,25c-3.5-3.2-7.7-4.7-12.5-4.5c-2.9-3.3-3.8-7.1-2.5-11.5c1.1-3.1,2.4-6.1,4-9c0.7-1.6,0.6-3.1-0.5-4.5
		c-2.4-1.2-4.9-2.1-7.5-2.5c-3.1,0.9-6.3,1.1-9.5,0.5c-4.4-2.3-9.1-3.9-14-5c-5.1-3-6.6-7.1-4.5-12.5
		C1354.8,1629.4,1357,1628,1359.5,1627.5z M1425.5,1656.5c9.9,2.4,19.6,5.6,29,9.5c12.9,6.6,25.9,12.9,39,19c4.3,5.3,3,7.7-4,7
		c-21.6-6.9-42.6-15.3-63-25C1418.9,1664.1,1418.6,1660.6,1425.5,1656.5z M2168.5,1665.5c3.1,0.3,4.3,2,3.5,5
		c-22.7,12.4-46.5,19.9-71.5,22.5c0.3-1.7,1.3-2.7,3-3C2125.2,1681.5,2146.8,1673.3,2168.5,1665.5z M1335.5,1681.5c3-0.2,6,0,9,0.5
		c3.3,2.3,6.9,3.7,11,4c3.9,9.2,0.8,13.7-9.5,13.5c-4.3-1.4-8.4-3.2-12.5-5.5C1329.3,1689.1,1330,1685,1335.5,1681.5z M768.5,1682.5
		c98.8-0.3,197.5,2.9,296,9.5c16.4,1.6,32.7,3.6,49,6c44.1,7.5,88.1,15.5,132,24c1.5,1.5,2.2,3.3,2,5.5c-0.4,4.1-1.2,8.1-2.5,12
		c-0.5,1.8-1.7,3-3.5,3.5c-8.3-0.2-16.6-0.5-25-1c-100.9-12.4-201.9-23.8-303-34c-35.5-6.1-71.1-10.7-107-14c-8-0.7-16-0.7-24,0
		c-0.5,0.5-1,1-1.5,1.5c-0.9,4.8-0.5,9.4,1,14c0.8,0.8,1.7,1.7,2.5,2.5c51.7,9.3,103.7,16,156,20c58.5,6.4,116.8,14.1,175,23
		c6.2,1.3,12.4,2.8,18.5,4.5c5.9-1.3,11.6-0.6,17,2c0.8-1.1,2-1.8,3.5-2c5.6,1.2,11.1,2.6,16.5,4c1.7-0.6,3.6-1,5.5-1
		c9.3,1,18.7,2.2,28,3.5c0.4,0.9,0.8,1.8,1,2.5c4.8-4,9.5-3.8,14,0.5c-8.3,1.6-16.6,1.9-25,1c-1.9-0.2-3.6-0.9-5-2
		c-7.7-0.3-15.3-0.7-23-1c-14.7-1.7-29.3-3.3-44-5c-51.5-1.7-102.5-6.9-153-15.5c-1.3,0.6-2.6,0.9-4,1c-19.6-3.1-39.3-5.9-59-8.5
		c-48.3-5.6-96.7-11.2-145-17c-53.6-8.5-107.3-16.5-161-24c-2.6-0.6-4.9-1.8-7-3.5c3.3-2.6,6.9-3.7,11-3.5c-1.2,0.9-1.2,1.7,0,2.5
		c1.4-1.3,3.1-2.1,5-2.5c18.6-1.9,37.3-2.9,56-3c31.2-2.9,62.5-4.2,94-4C762.7,1683.8,765.7,1683.3,768.5,1682.5z M2785.5,1682.5
		c26.7-0.2,53.3,0,80,0.5c44,1.8,88,3.8,132,6c7,1.6,14,2.3,21,2c0.5,0.4,0.8,0.9,1,1.5c-1.2,1.1-2.5,1.9-4,2.5
		c-28.6,5.6-57.3,10.9-86,16c-23.5,4-47.2,7.3-71,10c-15.3,3.2-30.7,6.3-46,9.5c-7.1-1-13.9,0-20.5,3c-3.3-0.7-6.7-1.3-10-2
		c-13.5,2-27,4.5-40.5,7.5c-10,0.3-20,0.7-30,1c-6.5,2-13.1,3-20,3c-1.1,1-2.5,1.7-4,2c-11.4,0.3-22.7,0.9-34,2
		c-11.7,3.7-23.5,6.5-35.5,8.5c-7.1-1.2-14.2-1.3-21.5-0.5c-25,2.4-50,4.4-75,6c-10,0.8-20,0.6-30-0.5c-3.7,2.2-7.7,3.2-12,3
		c0-1.3,0-2.7,0-4c25.8-1.5,51.4-4.3,77-8.5c8.7-0.3,17.3-0.7,26-1c6.8-1.7,13.6-2.9,20.5-3.5c1.1,0.6,2.2,0.9,3.5,1
		c9.6-1.2,18.9-3.4,28-6.5c5.4-0.7,10.7-0.6,16,0.5c21.9-1.9,43.7-4.2,65.5-7c2.5,0.2,5,0.3,7.5,0.5c0.5,0.5,1,1,1.5,1.5
		c16.8-2.3,33.7-4.8,50.5-7.5c8-0.3,16-0.7,24-1c1.1-1,2.5-1.7,4-2c6-0.3,12-0.7,18-1c6.7-0.9,10.1-4.7,10-11.5
		c0-5.2-2.3-8.7-7-10.5c-79.4,6.8-158.7,14.3-238,22.5c-71.7,5.1-143.2,12.1-214.5,21c-6.3-1.2-12.6-1.2-19,0
		c-8.2-0.4-12.7-4.7-13.5-13c-0.1-3.1,1.3-5.2,4-6.5c76.1-16.6,152.7-29.4,230-38.5c1.1,0.2,2.1,0.5,3,1
		C2646.3,1686.5,2715.9,1684.1,2785.5,1682.5z M2198.5,1683.5c6.4-0.7,11.2,1.6,14.5,7c2.1,4.4,3.3,9.1,3.5,14c0.2,2.6-0.5,5-2,7
		c-7.9,4.5-15.1,3.5-21.5-3c-1.1-7.6-0.5-14.9,2-22C2196.1,1685.4,2197.3,1684.4,2198.5,1683.5z M2258.5,1685.5
		c5.4,2.7,7.4,6.8,6,12.5c-7.4,2.1-14.7,4.5-22,7c-5.2,0.8-10.4,0.6-15.5-0.5c-1.7-3.7-0.8-6.8,2.5-9.5
		C2239.4,1692.1,2249,1688.9,2258.5,1685.5z M1374.5,1693.5c5.5-0.1,10.8,0.7,16,2.5c0.9,1.2,1.6,2.5,2,4
		c-0.2,6.7-2.1,12.8-5.5,18.5c-6.4,6-13.2,6.5-20.5,1.5c-2.4-3.3-2.6-6.8-0.5-10.5C1368.6,1703.9,1371.4,1698.6,1374.5,1693.5z
		 M1407.5,1700.5c11.6,3.5,23.2,6.6,35,9.5c11.6,4.2,23.3,8.2,35,12c1.9,1.7,2.9,3.9,3,6.5c-25.2-3.7-50.2-8.6-75-14.5
		C1399.8,1708.5,1400.5,1704,1407.5,1700.5z M2355.5,1701.5c2.8-0.1,5.4,0.4,8,1.5c-5.6,3.1-11.6,4.1-18,3
		C2348.8,1704.2,2352.1,1702.7,2355.5,1701.5z M2187.5,1709.5c1.9-0.2,2.7,0.4,2.5,2c-1.9,2.6-4.4,4.4-7.5,5.5
		c-22.6,5.5-45.3,10.7-68,15.5c-0.1-2.8,1.3-4.6,4-5.5c14.1-3.6,28.1-7.6,42-12C2169.6,1712.7,2178.6,1710.9,2187.5,1709.5z
		 M2215.5,1732.5c5.4-1.2,9.6,0.5,12.5,5c0.6,6,1.7,11.8,3.5,17.5c-0.3,1.4-0.9,2.6-2,3.5c-5.4,3.3-11.1,4.1-17,2.5
		c-1.9-1.5-3.4-3.4-4.5-5.5c-0.7-6-0.7-12,0-18C2210.1,1735.2,2212.6,1733.5,2215.5,1732.5z M1315.5,1733.5c9,1.6,18,3.5,27,5.5
		c2,9.2-1.7,14.7-11,16.5c-7.9-0.8-15.1-3.5-21.5-8c-2-3-2-6,0-9C1311.7,1736.6,1313.6,1734.9,1315.5,1733.5z M2266.5,1739.5
		c7.4,0.2,11.4,4,12,11.5c-0.4,3.1-2.1,5.1-5,6c-7.7,0.9-15.3,1.7-23,2.5c-7.8-1.7-10.5-6.3-8-14
		C2250.6,1743.6,2258.6,1741.6,2266.5,1739.5z M1359.5,1740.5c3.7-0.2,7.3,0,11,0.5c3,0.3,5.7,1.5,8,3.5c-1.4,5.3-2.5,10.6-3.5,16
		c-1.8,3.4-3.9,6.6-6.5,9.5c-12.2,1.2-17.7-4.3-16.5-16.5c1.5-3.9,2.6-7.9,3.5-12C1357.1,1741.8,1358.4,1741.4,1359.5,1740.5z
		 M1392.5,1749.5c8.1-0.2,16.1,0.3,24,1.5c14.7,3.3,29.3,6.7,44,10c3.2,4.7,1.9,7.5-4,8.5c-17.7-2-35.4-4.1-53-6.5
		c-5.8-1.2-11.5-2.9-17-5c1-2.1,1.9-4.2,2.5-6.5C1390.3,1750.9,1391.5,1750.2,1392.5,1749.5z M2188.5,1754.5c6.4,0.2,9.1,3.5,8,10
		c-20.6,1.5-41.1,3.8-61.5,7c-3.9,0.4-5.3-1.3-4-5c0.8-0.6,1.6-1.1,2.5-1.5C2151.9,1761.2,2170.2,1757.7,2188.5,1754.5z
		 M2503.5,1778.5c30.3-0.2,60.7,0,91,0.5c36.4,1.6,72.7,3.6,109,6c88.4,11.1,176.7,22.4,265,34c14.4,3.9,29.1,6.9,44,9
		c4.5,1.1,8.1,3.4,11,7c-48,2.4-96,4.7-144,7c-15.4,0.7-30.5,0.5-45.5-0.5c-2.7,0.3-5.2,1.1-7.5,2.5c-44.1,0.2-88.1,1.8-132,4.5
		c-24.2-0.4-48.3-1-72.5-2c-8.7,1.5-17.6,2.2-26.5,2c-6-0.2-12-0.3-18-0.5c-0.8-0.9-1.8-1.6-3-2c-20.9-0.2-41.8-1.1-62.5-2.5
		c-13,2.9-25.8,2.2-38.5-2c1.3-1.7,2.9-2.8,5-3.5c19.3-0.7,38.7-0.7,58,0c-0.6,3.3,0.1,3.3,2,0c43.1-0.2,86.1-0.4,129-0.5
		c49.7,1.6,99.3,2.8,149,3.5c6,0.2,11.7-1.2,17-4c5.7-4.8,7.1-10.5,4-17c-156.9-2.8-313.9-5.5-471-8c-6.5-0.3-11-3.5-13.5-9.5
		c-0.6-3.7-1.5-7.4-2.5-11c1.5-1.9,3.5-3.1,6-3.5c10.7-0.3,21.3-0.7,32-1c20-1.7,40-3.3,60-5c12.7-0.3,25.3-0.7,38-1
		C2492.4,1780.8,2498.1,1780,2503.5,1778.5z M2229.5,1779.5c2.9-0.4,5.4,0.2,7.5,2c3.2,6.7,4.5,13.7,4,21c-1.3,2.9-3.4,4.8-6.5,5.5
		c-3.7,0.7-7.3,0.7-11,0c-3.3-0.9-5.1-3.1-5.5-6.5c-0.7-5.3-0.7-10.7,0-16C2221.2,1782.1,2225,1780.1,2229.5,1779.5z M997.5,1780.5
		c74.4-1,148.7,0.5,223,4.5c3.6,1.1,7.3,2.1,11,3c1.4,8.8-1.6,15.8-9,21c-1.3,0.3-2.7,0.7-4,1c-114.8-1-229.6-2.2-344.5-3.5
		c-29.9-0.2-59.7,0.6-89.5,2.5c-6.6,2.7-8.7,7.5-6.5,14.5c1.2,2,3.1,3.2,5.5,3.5c61.3,3.5,122.6,4.7,184,3.5
		c84.3,2.8,168.6,4.3,253,4.5c2.9,0.9,4.1,2.7,3.5,5.5c-2.1,1.3-4.5,1.9-7,2c-9.2-0.6-18.3-0.9-27.5-1c-39.2,0.5-78.2,1.7-117,3.5
		c-69,0.7-138,0.7-207,0c-58.6-1.6-117.3-2.9-176-4c-13.1-1.1-26.3-2-39.5-2.5c-19.8,0-39.7,0.3-59.5,1c-4.7-0.2-9.3-0.3-14-0.5
		c-2.2-1.3-2.5-3-1-5c1.6-0.9,3.3-1.5,5-2c17.1-2.7,34.1-6,51-10c55.9-8,111.9-15.8,168-23.5c1.2,1.3,2.2,1.2,3-0.5
		c29.3-3.3,58.6-6.7,88-10c8.7-0.3,17.3-0.7,26-1c2.4-0.5,4.7-1.2,7-2C948.5,1784.4,973.2,1782.9,997.5,1780.5z M1345.5,1787.5
		c5.4-0.2,10.7,0.3,16,1.5c5.5,4.4,6.3,9.5,2.5,15.5c-1.1,11-6.9,14.5-17.5,10.5c-3.5-1-5.8-3.1-7-6.5c1.3-4.3,2.7-8.7,4-13
		c-0.2-0.6-0.5-1.1-1-1.5C1343.9,1792,1344.9,1789.8,1345.5,1787.5z M1310.5,1792.5c22.8,2.8,23.8,8.9,3,18.5c-5.6,1-10.9,0.3-16-2
		c-2.4-4-2.6-8.1-0.5-12.5C1301.5,1794.8,1306,1793.4,1310.5,1792.5z M2276.5,1794.5c12.3-1.8,17.1,3.2,14.5,15
		c-0.8,0.6-1.6,1.1-2.5,1.5c-9.3-0.3-18.6-0.3-28,0c-6.3-1.9-8.4-5.7-6.5-11.5c0.9-1.2,2.1-2,3.5-2.5
		C2264,1796.2,2270.3,1795.4,2276.5,1794.5z M1385.5,1796.5c15,1.5,30,2.7,45,3.5c4.4,0.5,8.8,1.5,13,3c2.4,1.7,2.4,3.5,0,5.5
		c-1.3,0.6-2.6,1.1-4,1.5c-17.7,0.2-35.4,0.7-53,1.5c-7.1-1.3-8.9-5.3-5.5-12C1382.4,1798.2,1383.9,1797.2,1385.5,1796.5z
		 M2190.5,1798.5c5.4,0,10.8,0.7,16,2c2.9,7.1,0.6,10.7-7,11c-19.3-0.8-38.6-1.3-58-1.5c-3.1-3.4-2.4-5.8,2-7
		C2159.3,1801.2,2175,1799.7,2190.5,1798.5z M2234.5,1827.5c2.7-0.2,5.4,0,8,0.5c2.2,0.8,3.7,2.3,4.5,4.5c0.7,7.3,0.7,14.7,0,22
		c-0.9,1.2-2.1,2-3.5,2.5c-4,0.7-8,0.7-12,0c-3.7-1.7-5.8-4.5-6.5-8.5C2221.2,1838.1,2224.4,1831.1,2234.5,1827.5z M1342.5,1836.5
		c4.4,0.5,8.7,1.3,13,2.5c1.4,1.1,2.1,2.6,2,4.5c-0.5,5.5-1.6,10.8-3.5,16c-5.4,5.7-11.6,6.5-18.5,2.5c-1.4-1-2.1-2.3-2-4
		c1-5.1,1.8-10.3,2.5-15.5C1337.4,1839.6,1339.6,1837.6,1342.5,1836.5z M2154.5,1844.5c19.3,1.7,38.6,2.5,58,2.5
		c1.1,2.7,1.3,5.6,0.5,8.5c-1.9,1.4-4.1,2.1-6.5,2c-15.9-2.2-31.9-3.7-48-4.5C2152.4,1852.2,2151.1,1849.4,2154.5,1844.5z
		 M1374.5,1846.5c20-0.2,40,0,60,0.5c2.4,5,0.8,8.3-5,10c-18,1.2-36,2.3-54,3.5c-4.2,0.6-5.9-1.2-5-5.5
		C1370.1,1851.2,1371.5,1848.4,1374.5,1846.5z M2272.5,1850.5c9.1,0.1,18.1,1.1,27,3c0.6,2.8,1.2,5.7,2,8.5c0.1,1.7-0.6,3-2,4
		c-12,0.2-24-0.5-36-2c-2-1.7-4-3.3-6-5c0.9-2.9,2.5-5.2,5-7C2266,1851.8,2269.4,1851.3,2272.5,1850.5z M1305.5,1851.5
		c4-0.2,8,0,12,0.5c3,5.1,2.4,9.8-2,14c-8.8,1.7-17.6,3.2-26.5,4.5c-3.8-0.1-6.6-1.8-8.5-5c1.9-3.8,3.2-7.8,4-12
		C1291.7,1853.1,1298.7,1852.4,1305.5,1851.5z M2364.5,1854.5c67.7,3.7,135.3,7.5,203,11.5c27.4,4.9,54.7,9.9,82,15
		c7.1,1.5,14.1,3.5,21,6c5,0.3,10,0.7,15,1c9.5,2.7,19.1,4.4,29,5c74.2,16,148.2,33.7,222,53c28.9,7.6,56.9,17.6,84,30
		c0.8,1,1.2,2.2,1,3.5c-10.3,0.4-19.6-0.8-28-3.5c-19.6-2.2-39.3-3.7-59-4.5c-0.7,0.3-1.3,0.7-2,1c-30-3.2-60-6.3-90-9.5
		c-4.7-0.9-9-2.6-13-5c4.3-2.8,6.3-6.8,6-12c0.7-3.5-0.6-5.9-4-7c-16-1.2-32-2.6-48-4c-134.2-20.9-268.9-38.6-404-53
		c-5.7-0.6-10.2-3.1-13.5-7.5C2364.6,1867.9,2364.1,1861.3,2364.5,1854.5z M1184.5,1856.5c11.3-0.2,22.7,0,34,0.5
		c1.6,7,1.1,13.8-1.5,20.5c-1.8,1.8-4,3-6.5,3.5c-122.1,13.3-244.1,26.9-366,41c-21,3.2-42,6.6-63,10c-5.3,5.7-5.3,11.4,0,17
		c41.1-1.9,82.1-4.9,123-9c101.9-9.4,203.6-21.3,305-35.5c5,2.6,5.3,5.9,1,10c-2.2,1.3-4.5,2.1-7,2.5c-37.1,3.8-74.1,8.4-111,14
		c-44.8,3-89.5,7.3-134,13c-69.3,5.3-138.3,12.6-207,22c-16.4-0.3-32.6,1.2-48.5,4.5c-6.8-1.1-13.6-1.3-20.5-0.5
		c-6.9,1.5-13.9,2.5-21,3c-23.1,0.8-46.1,2.5-69,5c2.7-2.4,5.7-4.4,9-6c14.9-6.7,30.3-12.3,46-17c56.7-15.3,113.3-30.7,170-46
		c31.4-4.1,62.4-10.1,93-18c4.3-0.3,8.7-0.7,13-1c46.4-11,93.4-19.3,141-25c28.7-2,57.3-3.7,86-5
		C1162,1859.2,1173.4,1858.1,1184.5,1856.5z M2170.5,1877.5c4.3,2.6,9,4.5,14,5.5c8.6,1.1,17.3,1.8,26,2c3.9,2.2,5.4,5.3,4.5,9.5
		c-4.8,0.4-9.6,0.7-14.5,1c-2.7-0.8-5.3-1.7-8-2.5c-7.3-0.3-14.7-0.7-22-1c-3.1-3.2-4.2-7-3.5-11.5
		C2168.1,1879.4,2169.3,1878.4,2170.5,1877.5z M2230.5,1877.5c6.2,0.7,12.3,1.3,18.5,2c2.4,8.2,3.6,16.5,3.5,25
		c-3.6-0.1-7.1-0.8-10.5-2c-5.9,2.6-9.9,0.9-12-5C2229.3,1890.8,2229.5,1884.1,2230.5,1877.5z M1423.5,1881.5c9.1-0.5,9.8,2.7,2,9.5
		c-5.1,2.3-10.4,3.7-16,4c-13.1,0.6-26.1,1.6-39,3c-3.4-3-4.4-6.5-3-10.5C1386.3,1885.7,1405,1883.7,1423.5,1881.5z M1333.5,1886.5
		c6.1-0.3,12.1,0,18,1c3.6,5.1,3.7,10.5,0.5,16c-1.8,1.8-4,3-6.5,3.5c-5.1,0.9-10.1,0.6-15-1
		C1328.8,1899.1,1329.8,1892.6,1333.5,1886.5z M2269.5,1890.5c8.2,4.5,16.8,5.9,26,4c3.4,0.2,5.7,1.7,7,4.5
		c-0.2,0.8-0.3,1.7-0.5,2.5c-4.6,1.3-9.4,2-14.5,2c-8.6,1.4-16.1-0.6-22.5-6c-0.7-1.3-0.7-2.7,0-4
		C2266.6,1892.6,2268.1,1891.6,2269.5,1890.5z M1296.5,1893.5c5.7-0.3,11.4,0,17,1c2.2,2.9,1.9,5.7-1,8.5
		c-9.4,1.7-18.9,2.8-28.5,3.5c-3.5,0.2-6.6-0.6-9.5-2.5c2.4-2.1,4.4-4.4,6-7C1286.1,1896.2,1291.4,1895.1,1296.5,1893.5z
		 M2371.5,1912.5c-4.4-3.9-3.7-6.9,2-9c42.8,4.4,85.5,10.2,128,17.5c22.3,0.9,44.3,3.9,66,9c25.6,2.8,51.3,4.8,77,6
		c14.5,1.6,28.8,3.9,43,7c11.1,0.5,22.1,1.5,33,3c4.3,0.9,8.4,2.1,12.5,3.5c3.4-1.9,7.1-2.9,11-3c8.7,1.3,17.3,2.7,26,4
		c2-0.1,4-0.4,6-1c12.4,4.7,25.2,6.8,38.5,6.5c2.1,0.3,3.8,1.3,5,3c-3.3,1.1-6.8,1.6-10.5,1.5c-10.5-0.6-21-1.1-31.5-1.5
		c-15.2-3.3-30.5-5.3-46-6c-1.3-0.7-2.7-1.3-4-2c-21.9-2.4-43.9-4.1-66-5c-30.9-4.3-61.9-8.1-93-11.5c-4.6,1.1-9.3,1.2-14,0.5
		c-0.7-0.7-1.3-1.3-2-2c-9.7-0.3-19.3-0.8-29-1.5c-3.8,1.2-7.2,0.7-10-1.5c-4.7-0.3-9.3-0.7-14-1c-1.1-1.7-2.5-1.9-4-0.5
		c-1-0.5-2-1-3-1.5c-13-1.2-26-2.5-39-4c-6.2-1.6-12.6-2.7-19-3.5c-6.5,1-12.8,0.1-19-2.5c-13.3-1.3-26.7-2.7-40-4
		C2374.1,1911.7,2372.7,1911.5,2371.5,1912.5z"/>
</g>
<g>
	<path class="st1" d="M2382.5,202.5c28.9-1.4,56.4,3.9,82.5,16c1.3-1.3,2.8-1.8,4.5-1.5c-0.7,0.7-1.3,1.3-2,2c9,4.5,17.7,9.5,26,15
		c15.6,12.2,29.1,26.4,40.5,42.5c6.9,13.1,7.3,26.5,1,40c-4.5,8.3-9.5,16.3-15,24c-0.7,1-1.6,1.1-2.5,0.5
		c8.4-27.2,4.2-52.4-12.5-75.5c-17.2-19-37.7-33.2-61.5-42.5c-51-10-92.9,5.2-125.5,45.5c-8.9,16.8-17.6,33.8-26,51
		c-12,32.9-12.5,65.9-1.5,99c14.3,22.4,32.9,40.3,56,53.5c28.7,11.3,57.7,12.3,87,3c7.6-3.5,15-7.5,22-12c6-6,12-12,18-18
		c2.6,0.4,4.6,1.9,6,4.5c-1.6,4.6-3.8,8.9-6.5,13c-4.4,3.7-8.1,8.1-11,13c-8.5,7.6-18.3,12.8-29.5,15.5c-24.8,7.6-49.4,7.3-74-1
		c-25.2-8.8-47.4-22.3-66.5-40.5c-35.6-41.8-45.3-89.1-29-142c14.4-40,39.9-70.5,76.5-91.5C2353.3,209.3,2367.6,204.8,2382.5,202.5z
		"/>
</g>
<g>
	<path class="st2" d="M1111.5,236.5c3.4-0.4,6.6,0.3,9.5,2c0.5,0.9,0.7,1.9,0.5,3c-12.2,3.4-17.1,11.4-14.5,24
		c6.8,23.6,13.5,47.3,20,71c19.5,55.4,37.1,111.4,53,168c1.1,4.3,3.2,7.8,6.5,10.5c2.7,0.7,5.3,0.7,8,0c18.7-7.1,37.7-13.5,57-19
		c24.3-8,39.2-24.5,44.5-49.5c0.8-7.1,1.8-14.1,3-21c1.6-0.9,3.1-1.9,4.5-3c0.9,6,1.6,12,2,18c-1.4,18-2.9,36-4.5,54
		c-0.3,0.8-0.8,1.5-1.5,2c-51.9,15.6-103.6,32.1-155,49.5c-3.9,1.1-6.9-0.1-9-3.5c13.2-6.8,18.1-17.5,14.5-32
		c-2.8-11.4-5.8-22.7-9-34c-20.3-65-40.7-130-61-195c-2.3-4.7-4.7-9.3-7-14c-5.4-1.9-10.6-4.4-15.5-7.5c-2.7-0.3-5.3-0.7-8-1
		c-1.8-0.2-3.1-1-4-2.5c1.8-1.4,3.8-2.6,6-3.5C1072.1,249.4,1092.1,243.9,1111.5,236.5z"/>
</g>
<g>
	<path class="st2" d="M2683.5,379.5c28.4-1.9,55.1,3.9,80,17.5c16.7,10.3,32.5,21.8,47.5,34.5c14.7,16.7,26.4,35.4,35,56
		c18.9,61.9,4.8,115.1-42.5,159.5c-36.9,30.4-78.9,41-126,32c-30.9-8.3-57.9-23.3-81-45c-41.9-39.3-57.1-87.1-45.5-143.5
		c12.6-41.6,37.4-73.4,74.5-95.5C2643.9,386.1,2663.3,380.9,2683.5,379.5z M2698.5,398.5c41.9-1.1,76.4,14.2,103.5,46
		c26.3,31.5,34,67.1,23,107c-15.3,48.4-46.1,82.9-92.5,103.5c-39.8,14-76.4,8.4-110-17c-2.6-4-6.3-6.5-11-7.5
		c-12.8-14.3-23.6-29.9-32.5-47c-13.6-60,2.3-110.8,47.5-152.5C2647.5,413.5,2671.5,402.7,2698.5,398.5z"/>
</g>
<g>
	<path class="st3" d="M681.5,472.5c17.9,9.3,35.6,19.1,53,29.5c2.5,1.6,5.1,2.6,8,3c2.1,2.6,4.4,4.9,7,7c16.3,6.1,33,13.8,50,23
		c32.6,16.7,64.6,34.3,96,53c22.8,11.3,45.2,22.6,67,34c1.9,0.8,3.9,1.3,6,1.5c8-2.1,16-4.2,24-6.5c2.8-0.8,5.5-0.4,8,1
		c-5.8,6.4-12.8,11.1-21,14c-15.9,17.2-34.3,30.3-55,39.5c4.4-3.9,7-8.8,8-14.5c-0.4-4.5-2.4-8.2-6-11c-23.2-15.1-46.8-29.4-71-43
		c-1.4-0.4-2.7-0.9-4-1.5c-3,0.9-5.7,2.4-8,4.5c-23.5,22.4-48.8,42.4-76,60c-3.6,4.4-4.5,9.2-2.5,14.5c7.5,25.2,15.5,50.2,24,75
		c2.7,3.7,6.2,6.2,10.5,7.5c6.1,0.5,12.1,0.5,18,0c-15.4,13.4-31.4,26.1-48,38c-5.1,2.6-10.3,5.1-15.5,7.5c0.7-2.8,2.4-5.1,5-7
		c7-9.6,9.4-20.3,7-32c-8.4-33.7-17.7-67-28-100C719.7,603.7,700.8,538,681.5,472.5z M714.5,521.5c9.6,3.8,19.2,8.3,29,13.5
		c17.1,10.4,34.1,21.1,51,32c6.7,3.4,13.4,6.7,20,10c6.2,4.6,12.5,8.9,19,13c3.7,3.2,3.3,6.2-1,9c-24.2,17.9-47.5,36.9-70,57
		c-2.2,1.3-4.4,1.5-6.5,0.5c-1.4-1.8-2.4-3.8-3-6c-0.9-5.4-2.3-10.8-4-16c-3.6-2.9-4.4-6.6-2.5-11c-1.4-3.5-2.3-7.2-2.5-11
		c-4.6-9.4-8.6-19.1-12-29c-1.6-7.1-2.6-14.1-3-21C723.9,548.9,719,535.2,714.5,521.5z"/>
</g>
<g>
	<path class="st4" d="M2993.5,606.5c3.2,1.7,6.1,4.1,8.5,7c7.3,8,14.7,16,22,24c3.9,4.6,2.9,7.2-3,8c-3-1-6-2-9-3
		c-2.4,0.8-4.5,2-6.5,3.5c-38.5,35.5-76.7,71.3-114.5,107.5c-11.9,12.1-21.6,25.8-29,41c-12.1,32.8-6.5,62.1,17,88
		c22.8,24.5,50.6,33.3,83.5,26.5c8.7-2.9,17.1-6.5,25-11c9-6.5,17.7-13.5,26-21c36.9-35.2,74-70,111.5-104.5c4.6-4.8,5.1-9.8,1.5-15
		c0.3-0.3,0.7-0.7,1-1c13.1,10.6,26.1,21.5,39,32.5c-0.5,0.5-1,1-1.5,1.5c-10.4-7.8-20.9-7.9-31.5-0.5c-37.7,36-75.7,71.7-114,107
		c-47.3,41.3-95.3,42-144,2c-19.4-18.4-32.6-40.5-39.5-66.5c-5.5-31.2,1.9-58.9,22-83c40.7-39.7,81.7-79,123-118
		c2.8-3.8,5.8-7.5,9-11C2989.8,615.4,2991,610.7,2993.5,606.5z"/>
</g>
<g>
	<path class="st2" d="M426.5,728.5c1.9,0.1,3.1,1.1,3.5,3c0.6,2.1,1.1,4.3,1.5,6.5c-1,4.8-1.2,9.6-0.5,14.5c4.1,9.5,7.7,19.2,11,29
		c14.7,33.8,29.7,67.5,45,101c5.2,11,10.8,21.7,17,32c6.6,8.4,13.7,15.1,21.5,20c2.1,0.2,4.1,0.7,6,1.5c2.7,3,5.7,5.7,9,8
		c18.4,8.5,35,19.5,50,33c11.7,6.5,22.5,5.4,32.5-3.5c1.5,1.5,3,3,4.5,4.5c-5.9,12.5-14,23.4-24.5,32.5c-2.5,5.2-4.9,10.6-7,16
		c-1,2.1-2.5,3.8-4.5,5c-1.6-0.5-2.8-1.5-3.5-3c-2.1-6.5-4.4-12.8-7-19c-9.7-9.4-19.9-18.3-30.5-26.5c-5.9-2.1-11.2-5.8-16-11
		c-11.8-6.2-22.8-13.5-33-22c-4.3-2.8-9-4.8-14-6c-10.2-2.4-20.5-3.7-31-4c-45.1-2.5-90.3-4.4-135.5-5.5
		c-12.9,0.9-24.1,5.7-33.5,14.5c-1.4,1.2-2.7,1.4-4,0.5c9.4-18.3,20.3-35.6,32.5-52c4.8-7.8,9.3-15.8,13.5-24c1.3,0.8,2.5,1.8,3.5,3
		c0.5,7.6,2.2,15,5,22c1.8,1.8,4,3,6.5,3.5c43.2,6,86.5,10.5,130,13.5c3-0.3,6-0.7,9-1c-20.8-41.7-41.7-83.3-62.5-125
		c-2.5-3.5-5.9-5.9-10-7c-6.5,3.3-13.3,5.6-20.5,7c-0.7-0.3-1.3-0.7-2-1c3.7-7.3,7.8-14.3,12.5-21
		C411,755.5,419.5,742.5,426.5,728.5z"/>
</g>
<g>
	<path class="st5" d="M3311.5,956.5c1.1,1.1,1.3,2.4,0.5,4c-23.2,74.5-48.5,148.2-76,221c-7.2,21.5-14.3,43-21.5,64.5
		c0.3,0.5,0.7,1,1,1.5c13.4-4.1,25.8-10.2,37-18.5c41.3-21.3,82.6-42.6,124-64c15.5-8.5,20.9-21,16-37.5c1,0.5,1.8,1.1,2.5,2
		c10.5,19.8,21,39.7,31.5,59.5c-2.3,0.7-4.7,0.7-7,0c-5.9-6.7-13.1-11.2-21.5-13.5c-2.2,0.1-4.4,0.6-6.5,1.5
		c-61.4,31.2-121.7,62.8-181,95c-12.9,9.6-26.9,17.5-42,23.5c-0.7-0.3-1.3-0.7-2-1c4.6-11.3,9.1-22.6,13.5-34
		c11.3-35.2,22.9-70.2,35-105c15.7-45,31.3-90,47-135c1.7-4.2,2.4-8.5,2-13c-2.6-1-5.1-0.5-7.5,1.5c-34.1,18.4-68.4,36.4-103,54
		c-19.7,10.5-39,21.5-58,33c-2.1,1.1-3.9,2.6-5.5,4.5c-0.9,3.2-2.2,6.2-4,9c-0.3,3.3-0.7,6.7-1,10c-0.7,0.9-1.5,1.5-2.5,2
		c-9.2-16.3-17.8-33-26-50c1.8-1.6,3-3.6,3.5-6c7.5,11.6,17.7,14.8,30.5,9.5c42.7-22,85.3-44,128-66
		C3249.9,992,3280.9,974.5,3311.5,956.5z"/>
</g>
<g>
	<path class="st6" d="M272.5,1139.5c45.6,1.6,86.3,16.5,122,44.5c40.8,41.2,55.8,90,45,146.5c-2.1,12.7-5.6,25.1-10.5,37
		c-6.9,14.8-14.6,29.1-23,43c-7.5,9.5-15.7,18.3-24.5,26.5c-10.7,7.3-21.3,14.7-32,22c-27.1,15.3-55.9,20.2-86.5,14.5
		c-1.5,3.7-2.3,3.7-2.5,0c-38.3-4.6-71.2-20.2-98.5-47c-12.4-15.8-23.1-32.8-32-51c-11.1-28.3-13.4-57.3-7-87c7-34,21-64.7,42-92
		c13.2-16.2,29.1-29.1,47.5-38.5C231.2,1147.2,251.2,1141.1,272.5,1139.5z M256.5,1173.5c37.6-1.8,72.2,7.4,104,27.5
		c48.6,29.8,69.6,73.1,63,130c-6.4,34.6-22.4,63.6-48,87c-18.3,12.5-38.3,21.1-60,26c-60,3.5-110.5-16.4-151.5-59.5
		c-28.3-39.7-33.6-82.4-16-128c10.4-26.1,26.6-47.9,48.5-65.5C215.6,1181.7,235.6,1175.9,256.5,1173.5z"/>
</g>
<g>
	<path class="st3" d="M3502.5,1591.5c0,1.3,0,2.7,0,4c-8.6,2.3-17.2,4.3-26,6c-3.7-0.4-7.3-0.9-11-1.5c-0.5-0.6-0.9-1.2-1-2
		c2.3-2.2,5-3.8,8-5c7.1-5.6,10.8-12.9,11-22c-3.7-17.2-5-34.5-4-52c-1.2-1.7-2.1-3.5-2.5-5.5c-0.5-5-0.7-10-0.5-15
		c-9-0.2-18,0-27,0.5c-71.6,7.5-143.3,14.5-215,21c-10.5,3.2-15.5,10.4-15,21.5c-2.9,0.5-5.4-0.2-7.5-2c-2.5-19.4-5.5-38.8-9-58
		c-0.8-2.9-0.6-5.8,0.5-8.5c2-0.7,4-0.7,6,0c2.6,11.8,10,18,22,18.5c79.7-6.4,159.4-13.3,239-20.5c0.8-0.8,1.7-1.7,2.5-2.5
		c0.8-8.4,0.1-16.7-2-25c-2.2-18.3-3.8-36.6-5-55c-1-2.3-2-4.7-3-7c-5.7-4.4-12.2-6.2-19.5-5.5c-3.3-0.5-6.3-1.7-9-3.5
		c1.4-1.3,3.1-2.1,5-2.5c13.4,0.3,26.6-1.2,39.5-4.5c3.1,0.2,4.6,1.9,4.5,5c-1,3.9-1.6,7.9-2,12c1,19.3,1.8,38.7,2.5,58
		c0.4,9.1,1.6,18.1,3.5,27c-0.7,7.7,0.1,15.4,2.5,23c0.3,9,0.7,18,1,27c1.9,7.4,3,14.9,3.5,22.5c-0.6,1.1-0.9,2.2-1,3.5
		c2.2,14.3,4.3,28.7,6.5,43C3500.8,1588.3,3501.6,1590,3502.5,1591.5z"/>
</g>
<g>
	<path class="st7" d="M1778.5,1557.5c22.5-0.3,44.8,1.2,67,4.5c50.9,6.8,96.2,26.8,136,60c10.9,10.9,21.7,21.7,32.5,32.5
		c12,17.3,24,34.7,36,52c5.6,13.9,12.3,27.3,20,40c3.4,7.6,6.1,15.6,8,24c6.4,8.2,9.7,17.6,10,28c8.9,17.9,13.9,36.9,15,57
		c3.2,15,6.5,30,10,45c1.8,7.4-1,10.2-8.5,8.5c-2.4-0.1-3.9-1.3-4.5-3.5c-2.5-12.9-4.5-25.6-6-38c-3.4-9.4-5.4-19-6-29
		c-4.8-11.3-8.1-22.9-10-35c-9.9-21.9-18.9-44.5-27-68c-7.5-10.8-14.2-22.2-20-34c-12.7-15.7-25.1-31.7-37-48
		c-20.5-20.2-43-37.7-67.5-52.5c-16.7-7-33.3-14-50-21c-53-13.9-106-13.9-159,0c-26.9,9.9-52.5,22.3-77,37
		c-15.2,10.4-29.1,22.6-41.5,36.5c-14.6,17.9-28.4,36.4-41.5,55.5c-13.2,25.5-26.7,51.3-40.5,77.5c0.2,4.6-0.2,9.2-1,14
		c-9.5,32.8-18.5,65.8-27,99c-0.5,1.4-1.3,2.6-2.5,3.5c-3.7,0.9-7.2,0.4-10.5-1.5c-0.7-2.3-0.7-4.7,0-7c10.4-47.3,24.1-93.6,41-139
		c7.5-12.6,14.1-25.6,20-39c1.3-2.3,3-4.3,5-6c28.4-51.7,68.2-92.2,119.5-121.5C1698.4,1570.2,1737.4,1559.7,1778.5,1557.5z"/>
</g>
<g>
	<path class="st8" d="M-0.5,1774.5c0-2.7,0-5.3,0-8c0.8-4,2-8,3.5-12c4.1-26.7,8.7-53,14-79c17.5-61.7,56.3-81.8,116.5-60.5
		c32,14.8,48.3,40,49,75.5c11.5-4.9,22.1-11.1,32-18.5c30.4-13.7,60-28.7,89-45c10.4-7.4,19.9-15.9,28.5-25.5c3.2-4.2,5.6-8.9,7-14
		c1.4-1.9,3.2-3.2,5.5-4c-1.5,41.7-21.1,71.6-59,89.5c-33.5,15.6-67.2,30.9-101,46c-7.8,4.2-13.8,10.6-18,19c-2,0.5-4,0.7-6,0.5
		c1-16,1.1-32,0.5-48c-13.5-40.2-41.3-57-83.5-50.5c-6.8,1.6-13.5,3.6-20,6c-5.8,4.5-11.7,9-17.5,13.5c-6.4,16.5-11,33.5-14,51
		c-1,6.4-2.1,12.7-3.5,19c2.5,4.8,6.5,7.3,12,7.5c4.3,0.3,8.7,0.7,13,1c79.6,15.2,159.3,30,239,44.5c3.7-0.1,6.9-1.4,9.5-4
		c3.2-5.6,5.5-11.6,7-18c5-5.5,7.1-4.1,6.5,4c-0.6,5.3-1.1,10.7-1.5,16c-4.8,21.9-9.3,43.9-13.5,66c-3.1-1.9-5.2-4.6-6.5-8
		c0.3-7.4-1-14.4-4-21c-3.7-3.9-8.2-6.4-13.5-7.5c-80-15.1-160-30.1-240-45c-11-2-18,2.3-21,13C5.2,1779.2,1.9,1778.1-0.5,1774.5z"
		/>
</g>
<g>
	<path class="st9" d="M3481.5,1705.5c1.7,12.2,2.7,24.7,3,37.5c-0.8,14.1-1.3,28.3-1.5,42.5c-1-0.7-2-1.3-3-2
		c-2.5-4.8-5.3-9.2-8.5-13.5c-10,0.6-19.3,3.6-28,9c-31.5,17.8-62.1,35-92,51.5c-1.7,3.7-0.7,6.5,3,8.5c23.5,12.6,47.1,24.9,71,37
		c12,8.5,25,15.2,39,20c4,0.5,7.7-0.5,11-3c4.8-4.8,9.7-9.7,14.5-14.5c0.7,22,0.7,44,0,66c-0.7,2.1-1.9,3.7-3.5,5
		c-7-13.2-16.7-24-29-32.5c-40.4-23.7-80.7-47.4-121-71c-8.6-1.9-17.2-2.8-26-2.5c-26.3,1.6-52.6,2.8-79,3.5
		c-10.4,4-17.9,11.2-22.5,21.5c-0.7-0.7-1.3-1.3-2-2c-1.2-17.3-1.8-34.6-2-52c-0.7-7.1-1.9-14.1-3.5-21c2.3-0.3,4.5,0.1,6.5,1
		c2.5,13.2,10.4,21,23.5,23.5c26.7-0.1,53.3-0.4,80-1c13.2-0.1,25.6-3.4,37-10c9.3-6.7,18.7-13.3,28-20c29-17.5,57.7-35.5,86-54
		c3.5-4.5,7.3-8.6,11.5-12.5C3476.5,1715.5,3479,1710.5,3481.5,1705.5z"/>
</g>
<g>
	<path class="st10" d="M2607.5,1748.5c3.3-0.2,3.6,0.5,1,2C2607.7,1750,2607.4,1749.4,2607.5,1748.5z"/>
</g>
<g>
	<path class="st11" d="M3033.5,2518.5c-57.3,0-114.7,0-172,0c-21-1.3-42-1.3-63,0c-12.7,0-25.3,0-38,0c-6.5-0.9-13.2-1.7-20-2.5
		c-2.4-0.7-4.8-1.7-7-3c-209.3-0.7-418.7-0.7-628,0c-119.8,3.2-239.7,4.1-359.5,2.5c-38.3,0-76.5,0.7-114.5,2
		c-160.5-1.3-321.2-2-482-2c-315.7,0.8-631.3,0.7-947-0.5c-1.2-0.5-2-1.3-2.5-2.5c-0.3-6.7-0.8-13.4-1.5-20c0.3-6,1.8-11.7,4.5-17
		c11.9,0.8,24.1,1.5,36.5,2c10.4-0.3,20.7-0.9,31-2c13-0.2,26,0.1,39,1c5.3-1.9,10.6-2.2,16-1c131.5-1.1,263-2.1,394.5-3
		c4,1.3,7.5,3.4,10.5,6.5c30.5,1.1,61,1.6,91.5,1.5c137.9-0.4,275.8-1.2,413.5-2.5c501-0.1,1002-1,1503-2.5c0.5-2.2,1.9-3.7,4-4.5
		c18.4-0.1,36.7-0.3,55-0.5c0-2.5,0.5-5.2,1.5-8c2.3-1.5,4.8-2.7,7.5-3.5c73.7-0.3,147.3-0.7,221-1c0.5-0.4,0.8-0.9,1-1.5
		c-1.5-2.9-3.7-5.2-6.5-7c-1-1.9-1.5-3.9-1.5-6c1.6-7.3,2.8-14.6,3.5-22c1.2-26.7,3.2-53,6-79c1.8-17.1,4.3-34.1,7.5-51
		c-0.1-0.9-0.4-1.8-1-2.5c0.8-3.8,1.3-7.6,1.5-11.5c0.4-1.2,1.1-2.2,2-3c1.1-7.3,2.1-14.7,3-22c3.8-14.2,6.8-28.5,9-43
		c3.7-7.9,5.7-16.2,6-25c1.9-6.6,3.6-13.3,5-20c1.7-3.7,3.3-7.3,5-11c0.3-3,0.7-6,1-9c5.1-9.8,10.4-19.4,16-29
		c1.5-2.5,3.3-4.6,5.5-6.5c7.7-5.2,15.7-9.8,24-14c17.1-5.2,34.4-5.9,52-2c42.7,10.7,78.5,31.9,107.5,63.5c15,18.4,25.7,39.1,32,62
		c4.9,19.1,4.5,38.1-1,57c-5.5,17.2-12.2,33.9-20,50c-1.6,2.6-3.6,5-6,7c-2.1,6.3-4.8,12.3-8,18c-6.8,7.9-12.8,16.9-18,27
		c-2.9,4.9-6.6,9.2-11,13c-3.2,7.2-7.9,13.2-14,18c-18.4,26.4-40.4,48.4-66,66c-4.6,3.7-9.4,7-14.5,10c-12.5,6.8-25.2,13.2-38,19.5
		c-12.8,4.4-25.8,8.1-39,11C3057.9,2515.5,3045.6,2516.7,3033.5,2518.5z"/>
</g>
<g>
	<path class="st12" d="M1725.5,2094.5c9-0.3,18,0,27,1c-7.5,10-15.1,19.8-23,29.5c-6,0.7-12,0.7-18,0
		C1716.6,2115,1721.2,2104.8,1725.5,2094.5z"/>
</g>
<g>
	<path class="st13" d="M583.5,2130.5c18-1.8,34.7,2,50,11.5c11.5,9.4,17.1,21.6,17,36.5c-7,0.2-14,0.5-21,1
		c-1.6-16.5-10.6-26-27-28.5c-11.9-1.8-23.2-0.1-34,5c-9.1,6.8-11.3,15.3-6.5,25.5c4.3,4.6,9.4,7.7,15.5,9.5
		c17.2,3.9,34.2,8.6,51,14c21.3,9.4,29.8,25.6,25.5,48.5c-4.8,16.8-15.6,27.6-32.5,32.5c-24.6,6.7-48,3.7-70-9
		c-13-10.8-19.3-24.6-19-41.5c7-0.2,14-0.5,21-1c1.7,18.5,11.7,29.7,30,33.5c15.4,3.7,29.7,1.4,43-7c9.9-10.1,10.3-20.4,1-31
		c-5.5-3.8-11.5-6.4-18-8c-14.8-3.4-29.5-7.4-44-12c-24-10.1-32.1-27.6-24.5-52.5c4.6-10.2,12.1-17.4,22.5-21.5
		C570.1,2133.5,576.8,2131.7,583.5,2130.5z"/>
</g>
<g>
	<path class="st5" d="M1357.5,2130.5c48.1-1.4,75.6,21.6,82.5,69c3.3,26.8-3.9,50.3-21.5,70.5c-21.1,17.6-45.1,23.3-72,17
		c-29.7-9.5-47.2-29.6-52.5-60.5c-4.2-25.9,1.2-49.6,16-71C1322.8,2141.2,1338.6,2132.9,1357.5,2130.5z M1358.5,2150.5
		c33.2-1.3,52.7,14.3,58.5,47c2.9,18.1-0.1,35.1-9,51c-13.9,18-32.1,24.5-54.5,19.5c-22.4-7.4-34.9-22.9-37.5-46.5
		c-2.1-17.6,0.9-34.3,9-50C1333.6,2160.3,1344.7,2153.3,1358.5,2150.5z"/>
</g>
<g>
	<path class="st13" d="M1540.5,2130.5c18-1.8,34.7,2,50,11.5c11.5,9.4,17.1,21.6,17,36.5c-7,0.2-14,0.5-21,1
		c-1.6-16.5-10.6-26-27-28.5c-11.9-1.8-23.2-0.1-34,5c-9.1,6.8-11.3,15.3-6.5,25.5c4.3,4.6,9.4,7.7,15.5,9.5
		c17.2,3.9,34.2,8.6,51,14c21.3,9.4,29.8,25.6,25.5,48.5c-4.8,16.8-15.6,27.6-32.5,32.5c-24.7,6.7-48,3.7-70-9
		c-13-10.8-19.3-24.6-19-41.5c7-0.2,14-0.5,21-1c1.7,18.5,11.7,29.7,30,33.5c15.4,3.7,29.7,1.4,43-7c9.9-10.1,10.3-20.4,1-31
		c-5.5-3.8-11.5-6.4-18-8c-14.8-3.4-29.5-7.4-44-12c-23.9-10.1-32.1-27.6-24.5-52.5c4.6-10.2,12.1-17.4,22.5-21.5
		C1527.1,2133.5,1533.8,2131.7,1540.5,2130.5z"/>
</g>
<g>
	<path class="st5" d="M1991.5,2130.5c23.4-2.6,42.9,4.8,58.5,22c5.2,7.3,9,15.3,11.5,24c-7.2,2.6-14.6,4-22,4
		c-8.2-23.1-24.5-32.9-49-29.5c-23.6,4.9-36.8,19.4-39.5,43.5c-3.5,21.1,0.1,40.8,11,59c17.8,17.5,38,20.7,60.5,9.5
		c10.6-7.9,16.9-18.4,19-31.5c7.1,1.2,14.1,2.9,21,5c-4.3,27.8-20.3,44.9-48,51.5c-46.8,6.9-75.3-12.6-85.5-58.5
		c-3.3-19.8-1.6-39.1,5-58C1945.7,2147.4,1964.9,2133.7,1991.5,2130.5z"/>
</g>
<g>
	<path class="st14" d="M753.5,2132.5c8-0.3,16,0,24,1c21.2,51.1,41.9,102.5,62,154c-8.3,0-16.7,0-25,0c-5.2-15.3-10.8-30.5-17-45.5
		c-21-0.5-42-0.7-63-0.5c-4.9,15.1-10.3,30.1-16,45c-7.6,1-15.3,1.3-23,1C714.8,2235.8,734.2,2184.2,753.5,2132.5z M764.5,2154.5
		c8.6,22.5,17.3,45.2,26,68c-16.3,1.3-32.7,1.3-49,0C750.8,2200.3,758.4,2177.7,764.5,2154.5z"/>
</g>
<g>
	<path class="st9" d="M885.5,2132.5c7.9-0.3,15.8,0,23.5,1c25.3,38.9,50.9,77.6,77,116c0.5-39,0.7-78,0.5-117c7,0,14,0,21,0
		c0,51.7,0,103.3,0,155c-7.3,0.2-14.7,0-22-0.5c-26.5-38.9-52.7-78.1-78.5-117.5c-0.5,39.3-0.7,78.7-0.5,118c-7,0-14,0-21,0
		C885.5,2235.8,885.5,2184.2,885.5,2132.5z"/>
</g>
<g>
	<path class="st15" d="M1214.5,2132.5c7.3,0,14.7,0,22,0c0.2,38.3,0,76.7-0.5,115c-2.6,30.9-19.4,44.7-50.5,41.5
		c-23.5-3.9-35.2-17.9-35-42c0-1.8,0.4-3.4,1-5c6.3-0.8,12.7-1.6,19-2.5c0,8.6,2.2,16.6,6.5,24c8.9,6.9,18.4,7.7,28.5,2.5
		c5.7-4.8,8.5-11,8.5-18.5C1214.5,2209.2,1214.7,2170.8,1214.5,2132.5z"/>
</g>
<g>
	<path class="st16" d="M1670.5,2132.5c37.3,0,74.7,0,112,0c0,6.7,0,13.3,0,20c-30,0-60,0-90,0c0,15,0,30,0,45c28,0,56,0,84,0
		c0,6.7,0,13.3,0,20c-28,0-56,0-84,0c0,16.7,0,33.3,0,50c31,0,62,0,93,0c0,6.7,0,13.3,0,20c-38.3,0-76.7,0-115,0
		C1670.5,2235.8,1670.5,2184.2,1670.5,2132.5z"/>
</g>
<g>
	<path class="st16" d="M2119.5,2132.5c7.3,0,14.7,0,22,0c0,21,0,42,0,63c26,0,52,0,78,0c0-21,0-42,0-63c7.3,0,14.7,0,22,0
		c0,51.7,0,103.3,0,155c-7.3,0-14.7,0-22,0c0-24,0-48,0-72c-26,0-52,0-78,0c0,24,0,48,0,72c-7.3,0-14.7,0-22,0
		C2119.5,2235.8,2119.5,2184.2,2119.5,2132.5z"/>
</g>
<g>
	<path class="st14" d="M2345.5,2132.5c8-0.3,16,0,24,1c21.2,51.1,41.9,102.5,62,154c-8.3,0-16.7,0-25,0c-5.2-15.3-10.8-30.5-17-45.5
		c-21-0.5-42-0.7-63-0.5c-4.9,15.1-10.3,30.1-16,45c-7.6,1-15.3,1.3-23,1C2306.8,2235.8,2326.2,2184.2,2345.5,2132.5z
		 M2356.5,2154.5c8.6,22.5,17.2,45.2,26,68c-16.3,1.3-32.7,1.3-49,0C2342.8,2200.3,2350.4,2177.7,2356.5,2154.5z"/>
</g>
<g>
	<path class="st15" d="M2476.5,2132.5c7.3,0,14.7,0,22,0c-0.2,24.7,0,49.3,0.5,74c24.5-24.5,49-49,73.5-73.5
		c9.7-0.8,19.4-0.7,29,0.5c-21.1,21-42.5,41.8-64,62.5c22.2,30.3,44.5,60.4,67,90.5c-9.6,1.2-19.3,1.3-29,0.5
		c-17.6-25.5-35.6-50.6-54-75.5c-7.6,7.1-15.1,14.5-22.5,22c-0.5,18-0.7,36-0.5,54c-7.3,0-14.7,0-22,0
		C2476.5,2235.8,2476.5,2184.2,2476.5,2132.5z"/>
</g>
<g>
	<path class="st14" d="M2691.5,2132.5c8-0.3,16,0,24,1c21.2,51.1,41.9,102.5,62,154c-8.3,0-16.7,0-25,0c-5.2-15.3-10.8-30.5-17-45.5
		c-21-0.5-42-0.7-63-0.5c-4.9,15.1-10.3,30.1-16,45c-7.6,1-15.3,1.3-23,1C2652.8,2235.8,2672.2,2184.2,2691.5,2132.5z
		 M2702.5,2154.5c8.6,22.5,17.2,45.2,26,68c-16.3,1.3-32.7,1.3-49,0C2688.8,2200.3,2696.4,2177.7,2702.5,2154.5z"/>
</g>
<g>
	<path class="st9" d="M2823.5,2132.5c7.9-0.3,15.8,0,23.5,1c25.3,38.9,50.9,77.6,77,116c0.5-39,0.7-78,0.5-117c7,0,14,0,21,0
		c0,51.7,0,103.3,0,155c-7.3,0.2-14.7,0-22-0.5c-26.5-38.9-52.7-78.1-78.5-117.5c-0.5,39.3-0.7,78.7-0.5,118c-7,0-14,0-21,0
		C2823.5,2235.8,2823.5,2184.2,2823.5,2132.5z"/>
</g>
</svg>
